<?xml version="1.0" encoding="UTF-8"?>
<svg width="15px" height="19px" viewBox="0 0 15 19" version="1.1" xmlns="http://www.w3.org/2000/svg" xmlns:xlink="http://www.w3.org/1999/xlink">
    <!-- Generator: Sketch 46.2 (44496) - http://www.bohemiancoding.com/sketch -->
    <title>forum-user</title>
    <desc>Created with Sketch.</desc>
    <defs></defs>
    <g id="Welcome" stroke="none" stroke-width="1" fill="none" fill-rule="evenodd">
        <g id="Desktop" transform="translate(-1008.000000, -13.000000)" fill-rule="nonzero" fill="#090909">
            <g id="Header" transform="translate(0.000000, 1.000000)">
                <g id="forum-user" transform="translate(1008.000000, 12.000000)">
                    <path d="M7.50002522,11 C10.5592447,10.9998313 11.6599326,7.94006528 11.9481437,5.42667522 C12.3031041,2.33033118 10.8374231,0 7.50002522,0 C4.16316785,0 2.69667609,2.33016246 3.05190672,5.42664147 C3.34038804,7.93999779 4.44073823,11.0002362 7.50002522,11 Z" id="Shape"></path>
                    <path d="M14.9988559,16.9037523 C14.9685522,16.0393179 14.8648767,15.1709655 14.7104808,14.3199892 C14.5234241,13.2891218 14.2853409,11.7778269 13.3641689,11.106024 C12.8314355,10.7175907 12.1415819,10.5901566 11.5317117,10.3559243 C11.2348883,10.2419783 10.9689807,10.1288098 10.7194188,10 C9.87709769,10.9024763 8.77875598,11.3745896 7.49969386,11.3746494 C6.22099906,11.3746494 5.12277978,10.9025361 4.28055047,10 C4.03098857,10.1288397 3.76508102,10.2420381 3.46825756,10.3559243 C2.85838742,10.5901566 2.16853381,10.7175608 1.63586165,11.106024 C0.714628374,11.7778269 0.47657577,13.2891218 0.289549744,14.3199892 C0.13512318,15.1709655 0.0314170954,16.0393179 0.0011439792,16.9037523 C-0.0223031462,17.5732823 0.316057852,17.6671308 0.889349251,17.8692728 C1.60724146,18.1222269 2.34839714,18.3100136 3.0945116,18.4639453 C4.5355303,18.7612517 6.02090264,18.9897718 7.49990813,19 C8.97891362,18.9897419 10.464286,18.7612517 11.9053046,18.4639453 C12.6514191,18.3100734 13.392636,18.1222868 14.110467,17.8692728 C14.6839727,17.6671906 15.0223031,17.5733422 14.9988559,16.9037523 Z" id="Shape"></path>
                </g>
            </g>
        </g>
    </g>
</svg>