<?xml version="1.0" encoding="UTF-8"?>
<svg width="27px" height="35px" viewBox="0 0 27 35" version="1.1" xmlns="http://www.w3.org/2000/svg" xmlns:xlink="http://www.w3.org/1999/xlink">
    <!-- Generator: Sketch 46.2 (44496) - http://www.bohemiancoding.com/sketch -->
    <title>Group 2</title>
    <desc>Created with Sketch.</desc>
    <defs></defs>
    <g id="Welcome" stroke="none" stroke-width="1" fill="none" fill-rule="evenodd">
        <g id="Desktop" transform="translate(-1147.000000, -82.000000)" fill-rule="nonzero" fill="#E1E1E1">
            <g id="Header" transform="translate(0.000000, 1.000000)">
                <g id="Group" transform="translate(0.000000, 42.000000)">
                    <g id="Group-2" transform="translate(1147.000000, 39.000000)">
                        <g id="shopping-bag">
                            <path d="M23.2150018,35 L3.78507688,35 C1.68224765,35 0,33.3177524 0,31.2149231 L0,31.1308068 L1.68224765,9.17754975 C1.76636396,8.50461921 2.27106187,8 2.94391371,8 L24.0560863,8 C24.7290168,8 25.233636,8.5046979 25.3177524,9.17754975 L27,31.1308855 L27,31.2150018 C27.0000787,33.3177524 25.317831,35 23.2150018,35 Z M2.52341082,31.2990394 C2.52341082,31.97197 3.11222503,32.5607055 3.78507688,32.5607055 L23.2150018,32.5607055 C23.8879323,32.5607055 24.4766679,32.0560076 24.4766679,31.2990394 L22.8785365,10.6073698 L4.12154215,10.6073698 C4.12154215,10.6074484 2.52341082,31.2990394 2.52341082,31.2990394 Z" id="Shape"></path>
                            <path d="M18.7812548,10 C18.1312167,10 17.5625095,9.41663938 17.5625095,8.75001949 L17.5625095,6.66666667 C17.5625095,4.33330215 15.774981,2.50003898 13.5,2.50003898 C11.225019,2.50003898 9.4374905,4.33338011 9.4374905,6.66666667 L9.4374905,8.75001949 C9.4374905,9.41671734 8.86870724,10 8.21874525,10 C7.56878325,10 7,9.41663938 7,8.75001949 L7,6.66666667 C6.99984798,2.99998441 9.92486698,0 13.499924,0 C17.074981,0 20,2.99998441 20,6.66666667 L20,8.75001949 C20,9.41663938 19.4312167,10 18.7812548,10 Z" id="Shape"></path>
                            <circle id="Oval" cx="8.5" cy="13.5" r="1.5"></circle>
                            <circle id="Oval" cx="19.5" cy="13.5" r="1.5"></circle>
                        </g>
                    </g>
                </g>
            </g>
        </g>
    </g>
</svg>