<?xml version="1.0" encoding="utf-8"?>
<!-- Generator: Adobe Illustrator 22.0.1, SVG Export Plug-In . SVG Version: 6.00 Build 0)  -->
<svg version="1.1" id="Layer_1" xmlns="http://www.w3.org/2000/svg" xmlns:xlink="http://www.w3.org/1999/xlink" x="0px" y="0px"
	 viewBox="0 0 498.2 23.6" style="enable-background:new 0 0 498.2 23.6;" xml:space="preserve">
<style type="text/css">
	.st0{fill:#FFFFFF;}
</style>
<path class="st0" d="M355.3,6.9h-1.2l0.3,0.6c0.2,0.3,0.5,0.6,0.6,0.6c0.1,0,0.2-0.3,0.2-0.6V6.9z M352.6,15.7
	c0,0.2,0.1,0.3,0.3,0.3c0.2,0,0.3-0.1,0.3-0.3c0-0.2-0.1-0.3-0.3-0.3C352.7,15.4,352.6,15.6,352.6,15.7z M351.5,4.9l-0.1,1.1
	l0.7,0.1c0.4,0.1,1,0,1.4-0.2l0.7-0.3V4.2l-1.4,0.4L351.5,4.9z M355.9,16.9c0,0.2,0.1,0.3,0.3,0.3s0.3-0.1,0.3-0.3
	c0-0.2-0.1-0.3-0.3-0.3S355.9,16.7,355.9,16.9z M350,13.4l-0.4,0.4l0.7,0.8V13L350,13.4z M377.4,3.2l-0.6-0.4v1.8h0.6
	c0.3,0,0.6-0.2,0.6-0.5C377.9,3.8,377.7,3.4,377.4,3.2z M342.5,8.1l0.4-0.9c0.2-0.5,0.4-1.3,0.4-1.8V4.6l-0.7,0
	c-0.4,0-1.1,0.3-1.5,0.6l-0.8,0.5L342.5,8.1z M344.3,5.5c0,0.2,0.1,0.3,0.3,0.3c0.2,0,0.3-0.1,0.3-0.3c0-0.2-0.1-0.3-0.3-0.3
	C344.4,5.2,344.3,5.3,344.3,5.5z M358.6,7.5V6.9h-1.7l0.3,0.6c0.2,0.3,0.6,0.6,0.9,0.6C358.4,8,358.6,7.8,358.6,7.5z M373.9,6.3h1.5
	L375,6l-0.4-0.4L374.3,6L373.9,6.3z M368.6,12.3c0,0.2,0.1,0.3,0.3,0.3c0.2,0,0.3-0.1,0.3-0.3c0-0.2-0.1-0.3-0.3-0.3
	C368.7,12,368.6,12.2,368.6,12.3z M373.5,22.9c0,0.3,0.1,0.5,0.2,0.5c0.1,0,0.5-0.4,0.9-0.9l0.7-0.9l-0.9,0.4
	C373.9,22.2,373.5,22.6,373.5,22.9z M372.4,4.4c0,0.1,0.4,0.2,0.8,0.2h0.8V3.5l-0.8,0.3C372.8,4,372.4,4.3,372.4,4.4z M357.6,9.3
	L356.8,9l0.2,0.7c0.1,0.4,0.6,0.9,1,1l0.7,0.2l-0.2-0.7C358.4,9.9,358,9.4,357.6,9.3z M364.7,11.7c0,0.2,0.1,0.3,0.3,0.3
	c0.2,0,0.3-0.1,0.3-0.3c0-0.2-0.1-0.3-0.3-0.3C364.8,11.5,364.7,11.6,364.7,11.7z M279.8,10.6c0,0.2,0.1,0.3,0.3,0.3
	c0.2,0,0.3-0.1,0.3-0.3c0-0.2-0.1-0.3-0.3-0.3C279.9,10.3,279.8,10.5,279.8,10.6z M364.5,9.6c-0.2,0.2-0.4,0.6-0.4,0.8
	c0,0.3,0.2,0.5,0.5,0.5c0.3,0,0.7-0.2,0.8-0.5l0.3-0.5l-1-0.6L364.5,9.6z M364.1,8.3c0,0.2,0.1,0.3,0.3,0.3c0.2,0,0.3-0.1,0.3-0.3
	c0-0.2-0.1-0.3-0.3-0.3C364.3,8,364.1,8.2,364.1,8.3z M335.2,12c0.2,0,0.3-0.1,0.3-0.3c0-0.2-0.1-0.3-0.3-0.3
	c-0.2,0-0.3,0.1-0.3,0.3C334.9,11.9,335.1,12,335.2,12z M300.7,5.8l-0.8,0.5l1.5,0c0.8,0,1.5-0.1,1.5-0.2c0-0.1-0.3-0.4-0.7-0.5
	l-0.7-0.3L300.7,5.8z M302.1,13.8l-1.9,0v0.6c0,0.3,0.1,0.6,0.1,0.6c0.1,0,0.5-0.3,1-0.6L302.1,13.8z M314,7.8
	c0,0.1,0.4,0.2,0.9,0.2h0.9l-0.3-0.6L315,6.9l-0.5,0.3C314.2,7.4,314,7.7,314,7.8z M311.2,18c0,0.2,0.1,0.3,0.3,0.3s0.3-0.1,0.3-0.3
	c0-0.2-0.1-0.3-0.3-0.3S311.2,17.9,311.2,18z M301.8,12.6h1.7l-0.3-0.6c-0.2-0.3-0.6-0.6-0.9-0.6c-0.3,0-0.5,0.3-0.5,0.6V12.6z
	 M298,9.1c-0.3,0.6-0.6,1.2-0.6,1.4c0,0.2,0.3,0.3,0.7,0.3c0.4,0,0.9-0.2,1.1-0.4c0.2-0.2,0.4-0.9,0.4-1.4V8h-0.5
	C298.8,8,298.3,8.5,298,9.1z M333,7.5l0.3-0.6h-1.2v0.6c0,0.3,0.1,0.6,0.2,0.6C332.5,8,332.8,7.8,333,7.5z M282.6,14
	c0,0.2,0.1,0.3,0.3,0.3c0.2,0,0.3-0.1,0.3-0.3c0-0.2-0.1-0.3-0.3-0.3C282.7,13.7,282.6,13.9,282.6,14z M290.1,10.2l-0.3,1.9h0.9
	l0.3-1.8l0.3-1.8l-0.3-0.3C291,8,290.7,8,290.6,8.1C290.5,8.2,290.3,9.2,290.1,10.2z M291.1,5.8c0.2,0,0.3-0.1,0.3-0.3
	c0-0.2-0.1-0.3-0.3-0.3c-0.2,0-0.3,0.1-0.3,0.3C290.8,5.6,290.9,5.8,291.1,5.8z M328.9,15.8l-0.4,0.4l-0.4,0.4h1.5l-0.4-0.4
	L328.9,15.8z M310.2,8.6h-1.8l0.3,0.6c0.2,0.3,0.4,0.6,0.6,0.6c0.1,0,0.4-0.3,0.6-0.6L310.2,8.6z M328.6,6.9c0.2,0,0.3-0.1,0.3-0.3
	c0-0.2-0.1-0.3-0.3-0.3c-0.2,0-0.3,0.1-0.3,0.3C328.3,6.8,328.4,6.9,328.6,6.9z M330.8,7.5c0.2,0,0.3-0.1,0.3-0.3
	c0-0.2-0.1-0.3-0.3-0.3c-0.2,0-0.3,0.1-0.3,0.3C330.5,7.3,330.6,7.5,330.8,7.5z M321.5,8.6l0.7,0.8V7.9l-0.4,0.4L321.5,8.6z
	 M320.6,13.7h-1.2l0.3,0.6c0.2,0.3,0.4,0.6,0.6,0.6c0.1,0,0.2-0.3,0.2-0.6V13.7z M309.8,6.2h2.8L311.9,6l-0.7-0.3L310.5,6L309.8,6.2
	z M313.2,7.5c0.2,0,0.3-0.1,0.3-0.3c0-0.2-0.1-0.3-0.3-0.3c-0.2,0-0.3,0.1-0.3,0.3C312.9,7.3,313,7.5,313.2,7.5z M310.7,14.4v0.5
	h1.7v-1.1h1.7v-0.6c0-0.3-0.1-0.6-0.2-0.6c-0.1,0-0.9,0.3-1.7,0.7C311.3,13.6,310.7,14.1,310.7,14.4z M360.3,6.3v0.6h1.2l-0.3-0.6
	c-0.2-0.3-0.5-0.6-0.6-0.6C360.4,5.8,360.3,6,360.3,6.3z M452,12.2l-0.4,0.4l0.7,0.8v-1.5L452,12.2z M444.1,9.5
	c0,0.2,0.1,0.3,0.3,0.3c0.2,0,0.3-0.1,0.3-0.3c0-0.2-0.1-0.3-0.3-0.3C444.2,9.2,444.1,9.3,444.1,9.5z M442,3.9l-1,0.4l0.3,1l0.3,1
	l0.8-0.5l0.8-0.5L442,3.9z M442.4,20.9c0,0.1,0.2,0.3,0.6,0.3h0.6v-1.2l-0.6,0.4C442.7,20.5,442.4,20.8,442.4,20.9z M449,14.6
	c0,0.2,0.1,0.3,0.3,0.3c0.2,0,0.3-0.1,0.3-0.3c0-0.2-0.1-0.3-0.3-0.3C449.2,14.3,449,14.4,449,14.6z M461.2,8h-1.1l0.3,0.9
	c0.2,0.5,0.4,0.9,0.5,0.9c0.1,0,0.2-0.4,0.2-0.9V8z M455.3,12.3l-0.3,0.3l1.1,0l1.1,0l-1.4-0.6L455.3,12.3z M452.5,13.9l-0.4,0.4
	h1.5l-0.4-0.4l-0.4-0.4L452.5,13.9z M451.2,10.3v0.6h1.7l-0.3-0.6c-0.2-0.3-0.6-0.6-0.9-0.6C451.5,9.8,451.2,10,451.2,10.3z
	 M243.6,11c0.9-0.1,9.5-0.2,10-0.2l0.9,0l0.3-0.9l0.3-0.9l-0.3-0.5L254.6,8h-2.7v0.6c0,0.3-0.2,0.6-0.6,0.6h-0.6V6.5l0.9-0.8
	l0.9-0.8l-0.4,0.7l-0.4,0.7l0.5,0.3l0.5,0.3l0.3-0.9l0.3-0.9l1.1,1.2c0.6,0.7,1.4,1.2,1.6,1.2h0.5v1.2l-0.7-0.4l-0.7-0.4l0.6,0.7
	l0.6,0.7l0.6-0.4l0.6-0.4l-0.4-1.2c-0.2-0.7-0.8-1.6-1.3-2l-0.9-0.8l1,0.4c0.6,0.2,1.4,0.4,1.8,0.4h0.8V8l0.4,0
	c0.2,0,1.2-0.5,2.2-1.1l1.8-1.1l1.8,0.7l1-1.9l0.5,0.3l0.5,0.3l-0.3,1.1l-0.3,1.1h1.2l-0.2,0.9l-0.2,0.9l2.9,0.2l2.9,0.2l-0.3-0.9
	L272.8,8l0.8,0.3l0.8,0.3l0.4-1.8l0.4-1.8l0.7,1.2l1.4-0.7l1.4-0.7l1,0.6l1,0.6l0.6-0.9l0.6-0.9l0.6,1.4h1.6L282.8,8h-1.6v1.2
	l1.1-0.6l1.1-0.6l0.3,0.5l0.3,0.5l-1.2,0.3l-1.2,0.3l0.5,0.5c0.3,0.3,1,0.6,1.6,0.8l1.1,0.2l-0.1,1.7l-0.1,1.7l0.5-2h0.7
	c0.4,0,1,0.3,1.3,0.7l0.7,0.7l0.3-0.3l0.3-0.3l-1.7-1.6l-1.7-1.6l0.3-2.2l0.3-2.2l-1.1-1.1l-1.1-1.1h0.8c0.4,0,1.2,0.2,1.7,0.3
	l0.9,0.3l-0.3,0.6L286,5.3l1.1-0.6c0.6-0.3,1.3-0.6,1.5-0.6h0.3l-0.4,1.2l-0.4,1.2l0.8-0.3l0.7-0.3l-0.3-1.7l1.1-0.3l1.1-0.3
	l0.2,0.4c0.1,0.2,0.8,0.6,1.5,0.9l1.3,0.4l-0.8-1.3h1.9l0.7,1l0.7,0.9l-0.8,0l-3,0l-0.6,1.7l1.6,1.7l1.5-2.4h3l0.5-0.9l-2.1,0l0-0.6
	l0-0.7l1.1,0.3l1.1,0.3V3.8l0.6,0.7l0.6,0.7l1-0.6l1-0.6v1.2h1.7V4.6c0-0.3,0.2-0.6,0.5-0.6h0.5v1.7h-1.9l-0.3,0.7
	c-0.1,0.4-0.3,0.9-0.3,1.2c0,0.3-0.3,0.7-0.7,1l-0.7,0.5l1,0.4l1,0.4l1.7-0.7V7.5h-1.2l0.3-0.6l0.3-0.6h2.5l0.7,0.7l0.7,0.7l0.7-0.7
	l0.7-0.7l-1.8-0.6L306,5.1v-1h1.7v1.3l1-1l1-1l0.2,0.7l0.2,0.7l0.9-0.7l0.9-0.7l2.7-0.3c0.8-0.1,2.1-0.1,3.2-0.2l-0.5,0.5l0.7,0.8V3
	c0.8,0,1.5,0,2.2,0c1.7,0,3.2,0.2,3.5,0.3c0.2,0.2,0.4,0.5,0.4,0.8c0,0.3-0.4,0.6-0.8,0.8l-0.8,0.3l0.6-1.7l-0.5,0
	c-0.3,0-0.8,0.2-1.2,0.5l-0.7,0.5l0.4,1c0.2,0.5,0.5,1,0.8,1c0.2,0,1.1-0.5,1.9-1.2l1.5-1.2l-0.2,0.8l-0.2,0.8l2.1-0.2l2.1-0.2
	l0.7,0.6l0.7,0.6l0.7-0.9l0.7-0.9h1.6l-0.7,2l1.4-1.7l1.8-0.2l1.8-0.2v1.8h1.1l-0.3-1.8l-0.3-1.8l0.7,0.4l0.7,0.4l1.5-0.4l1.5-0.4
	l-0.8-0.5l-0.8-0.5l1.3,0l1.3,0l-0.3,0.5l-0.3,0.5l0.5,0.8l0.5,0.8l1-1l1-1l0.6,0.9l0.6,0.9l2.3-0.6l-0.3-0.9L349,1.5l1.8,2.3l0-1.4
	h2.1l0.3-0.6l0.3-0.6l0.5,0.3c0.3,0.2,0.5,0.6,0.5,0.9V3l-0.7-0.3l-0.7-0.3L352.4,3l-0.8,0.5l1.7,0.1c0.9,0,1.8,0,2.1,0l0.4-0.1
	l-0.3,0.8l-0.3,0.8l0.5,0.3l0.5,0.3l1-1.2l1-1.2l-0.7-0.2l-0.7-0.2V1.3l1.1,0.3l1.1,0.3v1.6h1.1V1.6l0.9,0.7l0.9,0.7l-0.7,0.5
	l-0.7,0.5l1-0.3l1-0.3l0.6,1.7l0.6,1.7h1.4l0.3-1.3c0.1-0.7,0.3-1.8,0.4-2.4l0.2-1.1l-1.3-0.5l-0.2,0.7l-0.2,0.7l0.1-0.9l0.1-0.9
	l1.2-0.2l1.2-0.2v0.5c0,0.3,0.6,0.8,1.4,1.2l1.4,0.6l0.7-0.7l0.7-0.7l4.4,0.1l0.7-0.5l0.7-0.5v1l1.2,0.1c0.6,0,1.3,0.2,1.5,0.4
	l0.3,0.3l-1.3,1.6l0.9,0.4c0.5,0.2,1.1,0.4,1.4,0.4h0.5l-0.4-0.7c-0.2-0.4-0.5-1.3-0.5-2l0-1.3h0.9v1.5l1.7,0l1.7,0l-0.3-0.5
	l-0.3-0.5l2-0.4c1.1-0.2,2.4-0.5,2.9-0.7l0.9-0.3l-1.6,1.2l0.4,0.4l0.4,0.4l0.7-0.6l0.7-0.6l3.5,1.1l3.5,1.1l1.6-2.3l0.7,0.6
	l0.7,0.6l0.7-1.2h2.7v1.7h1.1l0-1l0-1l0.8,1l0.8,1l0.3-0.7l0.3-0.7l1.2,1.7l0.5-0.9l0.5-0.9l0,0.7l0,0.7l2.6-0.2l2.6-0.2l0.4-1.1
	c0.2-0.6,0.4-0.9,0.5-0.6l0,0.5l0.7-0.6l0.7-0.6l0.4,0.4c0.2,0.2,0.4,0.6,0.4,0.8v0.5h-0.8c-0.4,0-0.9,0.2-1.1,0.5l-0.3,0.5l5-0.2
	l1.2-2.1l0.2-0.4H255 M443.3,10.9l0.7,0.8v-1.5l-0.4,0.4L443.3,10.9z M465.6,13.7h-1.7l0.3,0.6c0.2,0.3,0.6,0.6,0.9,0.6
	c0.3,0,0.5-0.3,0.5-0.6V13.7z M498.2,0h-14.3l0.7,0.6l0.8,0.7l0.4-0.6c0.2-0.3,0.6-0.6,0.9-0.6h0.6l-0.4,0.7l-0.4,0.7l1.6-1.3
	l3.7,0.1l3.7,0.1l0.4,0.4l0.4,0.4L498.2,0z M428.3,16.5l-1.7-0.8l0,3.3l0,3.3l0.4,0l0.4,0v-2.4l1.7,0.4l1.7,0.4l-0.4-1.6
	c-0.2-0.9-0.4-1.6-0.5-1.6C430.1,17.4,429.3,17,428.3,16.5z M439.1,10.6c0,0.1,0.2,0.3,0.6,0.3h0.6V9.7l-0.6,0.4
	C439.4,10.2,439.1,10.5,439.1,10.6z M426.5,0l-0.7,0.5l0.7,1.2l0.7,1.2h1.8c1,0,2.1,0.2,2.6,0.3l0.9,0.3l-0.3-0.9l-0.3-0.9h0.6
	c0.3,0,0.6,0.2,0.6,0.5v0.5l5.9-0.2l5.9-0.2l0.4-0.7l0.4-0.7l1.6,0.9l1.6,0.9l1.5-0.8c0.8-0.5,1.8-0.8,2.2-0.8h0.7l0.3,0.9L454,3
	l-0.3,0.5l-0.3,0.5h1.6l0.7-2.4l1.4,0.3l1.4,0.3l1.8-1l1.8-1l0.6,0.6l0.6,0.6l1.2-0.4l1.2-0.4V0c0,0,0,0,0,0h-36.1
	c-0.1,0.8-0.3,1.6-0.3,1.7c0,0.1-0.4-0.1-0.8-0.5l-0.8-0.7l0.2-0.6L426.5,0L426.5,0z M424.1,0L424.1,0l1.4,0.1L425.5,0H424.1z
	 M382,9.9l-0.4,0.4h1.5l-0.4-0.4l-0.4-0.4L382,9.9z M390.1,7.8c0,0.2,0.1,0.3,0.3,0.3c0.2,0,0.3-0.1,0.3-0.3c0-0.2-0.1-0.3-0.3-0.3
	C390.2,7.5,390.1,7.6,390.1,7.8z M390.6,10c0,0.2,0.1,0.3,0.3,0.3c0.2,0,0.3-0.1,0.3-0.3c0-0.2-0.1-0.3-0.3-0.3
	C390.7,9.8,390.6,9.9,390.6,10z M391.2,15.2c0,0.2,0.1,0.3,0.3,0.3c0.2,0,0.3-0.1,0.3-0.3c0-0.2-0.1-0.3-0.3-0.3
	C391.3,14.9,391.2,15,391.2,15.2z M389.1,4.8l-0.4,0.4h1.5l-0.4-0.4l-0.4-0.4L389.1,4.8z M465.3,8.6c0.2,0,0.3-0.1,0.3-0.3
	c0-0.2-0.1-0.3-0.3-0.3c-0.2,0-0.3,0.1-0.3,0.3C465,8.5,465.2,8.6,465.3,8.6z M377.7,13.7c0.2,0.3,0.5,0.6,0.6,0.6
	c0.1,0,0.1-0.3-0.1-0.6c-0.2-0.3-0.5-0.6-0.6-0.6C377.4,13.2,377.5,13.4,377.7,13.7z M385.6,15.7c0,0.2,0.1,0.3,0.3,0.3
	c0.2,0,0.3-0.1,0.3-0.3c0-0.2-0.1-0.3-0.3-0.3C385.8,15.4,385.6,15.6,385.6,15.7z M395.8,5.4l-0.4,0.4h1.5l-0.4-0.4L396.1,5
	L395.8,5.4z M384,6.7c0,0.1,0.2,0.2,0.5,0.2c0.3,0,0.7-0.3,0.9-0.6l0.3-0.6l-0.9,0.3C384.4,6.3,384,6.6,384,6.7z M383.4,8.3
	c0,0.2,0.1,0.3,0.3,0.3c0.2,0,0.3-0.1,0.3-0.3c0-0.2-0.1-0.3-0.3-0.3C383.6,8,383.4,8.2,383.4,8.3z M473.9,14.6
	c0,0.2,0.1,0.3,0.3,0.3c0.2,0,0.3-0.1,0.3-0.3c0-0.2-0.1-0.3-0.3-0.3C474,14.3,473.9,14.4,473.9,14.6z M473.3,11.4
	c0,0.3,0.2,0.7,0.6,0.9l0.6,0.4v-1.8h-0.6C473.5,10.9,473.3,11.1,473.3,11.4z M469.4,11.7c0,0.2,0.1,0.3,0.3,0.3s0.3-0.1,0.3-0.3
	c0-0.2-0.1-0.3-0.3-0.3S469.4,11.6,469.4,11.7z M401.6,22.6c0,0.2,0.1,0.3,0.3,0.3c0.2,0,0.3-0.1,0.3-0.3c0-0.2-0.1-0.3-0.3-0.3
	C401.8,22.3,401.6,22.4,401.6,22.6z M466.4,0.1l-0.3,0.6l0.4,0c0.2,0,1.4,0.1,2.7,0.3c1.2,0.1,4.2,0.4,6.7,0.5l4.5,0.3l0.7-1.1
	l1.1,0.7l0.8-0.7l0.7-0.6L466.4,0.1L466.4,0.1z M403.4,8.2c-0.1,0.3-0.1,0.5,0,0.6c0.1,0.1,0.5,0,0.9-0.1c0.4-0.1,0.7-0.5,0.7-0.7
	V7.6l-0.7,0.1C403.9,7.7,403.5,8,403.4,8.2z M404.6,20.2l-0.4,0.4l0.7,0.8v-1.5L404.6,20.2z M474.4,16.9c0,0.2,0.1,0.3,0.3,0.3
	c0.2,0,0.3-0.1,0.3-0.3c0-0.2-0.1-0.3-0.3-0.3C474.5,16.6,474.4,16.7,474.4,16.9z M405.7,3.7l-0.4,0.4h1.5l-0.4-0.4L406,3.3
	L405.7,3.7z M278.1,8.2c-0.4,0.7-0.4,1.1-0.2,0.9l0.4-0.4l1.3,1.1l0.3-0.3l0.3-0.3L279.9,8c-0.2-0.6-0.5-1.1-0.7-1.1
	C278.9,6.9,278.4,7.5,278.1,8.2z M287.8,5.8c0.2,0,0.3-0.1,0.3-0.3c0-0.2-0.1-0.3-0.3-0.3c-0.2,0-0.3,0.1-0.3,0.3
	C287.5,5.6,287.6,5.8,287.8,5.8z M288.4,9.5c0-0.6-0.3-1.5-0.5-1.9c-0.2-0.4-0.7-0.7-1-0.7h-0.6l0.4,1c0.2,0.5,0.4,1.6,0.3,2.3
	c0,0.7,0,1.3,0.1,1.3c0.1,0,0.4-0.2,0.7-0.4l0.6-0.4L288.4,9.5z M250.9,13.2l-0.3,0.6h1.7v-0.6c0-0.3-0.2-0.6-0.5-0.6
	C251.4,12.6,251,12.9,250.9,13.2z M251.4,16h-0.8v1.7h0.7c0.4,0,0.9-0.2,1.1-0.4l0.4-0.4l-0.3-0.5C252.3,16.2,251.8,16,251.4,16z
	 M253.3,12.8c0,0.1,0.4,0.4,0.8,0.6l0.8,0.3v-1.1h-0.8C253.7,12.6,253.3,12.7,253.3,12.8z M251.7,20.3c0,0.2,0.1,0.3,0.3,0.3
	c0.2,0,0.3-0.1,0.3-0.3c0-0.2-0.1-0.3-0.3-0.3C251.8,20,251.7,20.1,251.7,20.3z M256.3,16.8l-0.4,0.4h1.5l-0.4-0.4l-0.4-0.4
	L256.3,16.8z M263.7,8.5l-0.6,0.6l0.7,1.2h3.9l-0.3-0.6l-0.3-0.6h-2.7V7.8L263.7,8.5z M257.2,10.9l-1.9,0l0.8,0.6
	c0.5,0.3,1,0.6,1.2,0.6c0.2,0,0.7-0.4,1-0.8l0.7-0.9l2.9,0l-1.7-1l-1.5,0.3l-1.5,0.3V10.9z M274.7,13.7l-0.3,1.1l0.8,1.4l0.6-1.9
	c0.3-1,0.5-2,0.4-2.1c-0.1-0.1-0.5-0.1-0.8,0.1C275.2,12.4,274.8,13.1,274.7,13.7z M273.2,10.9c0,0.3,0.2,0.6,0.6,0.6
	c0.3,0,0.6-0.3,0.6-0.6c0-0.3-0.2-0.6-0.6-0.6C273.4,10.3,273.2,10.6,273.2,10.9z M276.5,10.9h0.5V7.5h-0.5c-0.3,0-0.6,0.4-0.8,0.9
	l-0.3,0.9l0.3,0.9C275.9,10.5,276.3,10.9,276.5,10.9z M273.2,15.7c0,0.2,0.1,0.3,0.3,0.3c0.2,0,0.3-0.1,0.3-0.3
	c0-0.2-0.1-0.3-0.3-0.3C273.3,15.4,273.2,15.6,273.2,15.7z M264.1,20.7l-2,2.7l0.7,0c0.4,0,1.1-0.2,1.5-0.5l0.8-0.5l-0.5-0.9
	L264.1,20.7z M263.3,17.7c-0.3,0-0.6,0.3-0.6,0.6c0,0.3,0.2,0.6,0.6,0.6c0.3,0,0.6-0.3,0.6-0.6C263.8,18,263.6,17.7,263.3,17.7z
	 M264.7,12.6h1.5l-0.4-0.4l-0.4-0.4l-0.4,0.4L264.7,12.6z"/>
<path class="st0" d="M142.8,7.7c0,0.3,0.1,0.6,0.2,0.6s0.4-0.3,0.6-0.6l0.3-0.6h-1.2V7.7z M145.3,15.7c-0.2,0-0.3,0.1-0.3,0.3
	c0,0.2,0.1,0.3,0.3,0.3c0.2,0,0.3-0.1,0.3-0.3C145.6,15.8,145.5,15.7,145.3,15.7z M145.3,4.7l-1.4-0.4v1.5l0.7,0.3
	c0.4,0.2,1,0.2,1.4,0.2l0.7-0.1l-0.1-1.1L145.3,4.7z M142,16.8c-0.2,0-0.3,0.1-0.3,0.3c0,0.2,0.1,0.3,0.3,0.3c0.2,0,0.3-0.1,0.3-0.3
	C142.3,16.9,142.2,16.8,142,16.8z M147.8,13.2v1.5l0.7-0.8l-0.4-0.4L147.8,13.2z M120.2,4.3c0,0.3,0.2,0.5,0.6,0.5h0.6V3.1l-0.6,0.4
	C120.5,3.6,120.2,4,120.2,4.3z M158,5.9l-0.8-0.5c-0.5-0.3-1.1-0.5-1.5-0.6l-0.7,0v0.8c0,0.4,0.2,1.2,0.4,1.8l0.4,0.9L158,5.9z
	 M153.6,5.4c-0.2,0-0.3,0.1-0.3,0.3c0,0.2,0.1,0.3,0.3,0.3c0.2,0,0.3-0.1,0.3-0.3C153.9,5.5,153.7,5.4,153.6,5.4z M140.1,8.3
	c0.3,0,0.7-0.3,0.9-0.6l0.3-0.6h-1.7v0.6C139.5,8,139.8,8.3,140.1,8.3z M123.9,6.2l-0.4-0.4l-0.4,0.4l-0.4,0.4h1.5L123.9,6.2z
	 M129.3,12.2c-0.2,0-0.3,0.1-0.3,0.3c0,0.2,0.1,0.3,0.3,0.3c0.2,0,0.3-0.1,0.3-0.3C129.6,12.4,129.5,12.2,129.3,12.2z M123.7,22.3
	l-0.9-0.4l0.7,0.9c0.4,0.5,0.8,0.9,0.9,0.9c0.1,0,0.2-0.2,0.2-0.5C124.6,22.8,124.2,22.5,123.7,22.3z M124.9,4.1l-0.8-0.3v1.1h0.8
	c0.5,0,0.8-0.1,0.8-0.2C125.8,4.5,125.4,4.2,124.9,4.1z M139.6,10.5l-0.2,0.7l0.7-0.2c0.4-0.1,0.8-0.6,1-1l0.2-0.7l-0.7,0.2
	C140.2,9.6,139.8,10.1,139.6,10.5z M133.2,11.7c-0.2,0-0.3,0.1-0.3,0.3c0,0.2,0.1,0.3,0.3,0.3c0.2,0,0.3-0.1,0.3-0.3
	C133.5,11.8,133.3,11.7,133.2,11.7z M218.1,10.5c-0.2,0-0.3,0.1-0.3,0.3c0,0.2,0.1,0.3,0.3,0.3c0.2,0,0.3-0.1,0.3-0.3
	C218.4,10.7,218.2,10.5,218.1,10.5z M133.3,9.4l-1,0.6l0.3,0.5c0.2,0.3,0.5,0.5,0.8,0.5c0.3,0,0.5-0.2,0.5-0.5
	c0-0.3-0.2-0.6-0.4-0.8L133.3,9.4z M133.7,8.3c-0.2,0-0.3,0.1-0.3,0.3c0,0.2,0.1,0.3,0.3,0.3c0.2,0,0.3-0.1,0.3-0.3
	C134,8.4,133.9,8.3,133.7,8.3z M163.2,12c0-0.2-0.1-0.3-0.3-0.3c-0.2,0-0.3,0.1-0.3,0.3c0,0.2,0.1,0.3,0.3,0.3
	C163.1,12.2,163.2,12.1,163.2,12z M196.7,5.5L196,5.8c-0.4,0.2-0.7,0.4-0.7,0.5c0,0.1,0.7,0.2,1.5,0.2l1.5,0L197.5,6L196.7,5.5z
	 M196.9,14.5c0.5,0.3,0.9,0.6,1,0.6c0.1,0,0.1-0.2,0.1-0.6v-0.6l-1.9,0L196.9,14.5z M183.7,7.4l-0.5-0.3l-0.3,0.6l-0.3,0.6h0.9
	c0.5,0,0.9-0.1,0.9-0.2C184.2,7.9,184,7.6,183.7,7.4z M186.7,17.9c-0.2,0-0.3,0.1-0.3,0.3c0,0.2,0.1,0.3,0.3,0.3
	c0.2,0,0.3-0.1,0.3-0.3C186.9,18.1,186.8,17.9,186.7,17.9z M196.3,12.2c0-0.3-0.2-0.6-0.5-0.6c-0.3,0-0.7,0.3-0.9,0.6l-0.3,0.6h1.7
	V12.2z M199.1,8.3h-0.5v1c0,0.6,0.2,1.2,0.4,1.4c0.2,0.2,0.7,0.4,1.1,0.4c0.4,0,0.7-0.1,0.7-0.3c0-0.2-0.3-0.8-0.6-1.4
	C199.8,8.8,199.3,8.3,199.1,8.3z M165.8,8.3c0.1,0,0.2-0.3,0.2-0.6V7.1h-1.2l0.3,0.6C165.4,8,165.6,8.3,165.8,8.3z M215.3,13.9
	c-0.2,0-0.3,0.1-0.3,0.3c0,0.2,0.1,0.3,0.3,0.3c0.2,0,0.3-0.1,0.3-0.3C215.6,14.1,215.5,13.9,215.3,13.9z M207.5,8.3
	c-0.1-0.1-0.3-0.1-0.5,0.1l-0.3,0.3l0.3,1.8l0.3,1.8h0.9l-0.3-1.9C207.9,9.4,207.6,8.4,207.5,8.3z M207.3,5.7c0-0.2-0.1-0.3-0.3-0.3
	c-0.2,0-0.3,0.1-0.3,0.3c0,0.2,0.1,0.3,0.3,0.3C207.2,6,207.3,5.8,207.3,5.7z M168.9,16.4l-0.4,0.4h1.5l-0.4-0.4l-0.4-0.4
	L168.9,16.4z M188.3,9.4c0.2,0.3,0.4,0.6,0.6,0.6c0.1,0,0.4-0.3,0.6-0.6l0.3-0.6H188L188.3,9.4z M169.9,6.8c0-0.2-0.1-0.3-0.3-0.3
	c-0.2,0-0.3,0.1-0.3,0.3c0,0.2,0.1,0.3,0.3,0.3C169.7,7.1,169.9,7,169.9,6.8z M167.7,7.4c0-0.2-0.1-0.3-0.3-0.3
	c-0.2,0-0.3,0.1-0.3,0.3c0,0.2,0.1,0.3,0.3,0.3C167.5,7.7,167.7,7.6,167.7,7.4z M176.3,8.4l-0.4-0.4v1.5l0.7-0.8L176.3,8.4z
	 M177.6,14.5c0,0.3,0.1,0.6,0.2,0.6c0.1,0,0.4-0.3,0.6-0.6l0.3-0.6h-1.2V14.5z M187.6,6.2l-0.7-0.3l-0.7,0.3l-0.7,0.3h2.8L187.6,6.2
	z M185.3,7.4c0-0.2-0.1-0.3-0.3-0.3c-0.2,0-0.3,0.1-0.3,0.3c0,0.2,0.1,0.3,0.3,0.3C185.2,7.7,185.3,7.6,185.3,7.4z M186.1,13.5
	c-0.8-0.4-1.5-0.7-1.7-0.7c-0.1,0-0.2,0.3-0.2,0.6v0.6h1.7v1.1h1.7v-0.5C187.5,14.3,186.9,13.8,186.1,13.5z M137.6,6
	c-0.1,0-0.4,0.3-0.6,0.6l-0.3,0.6h1.2V6.5C137.9,6.2,137.8,6,137.6,6z M45.8,12.1v1.5l0.7-0.8l-0.4-0.4L45.8,12.1z M53.8,9.4
	c-0.2,0-0.3,0.1-0.3,0.3c0,0.2,0.1,0.3,0.3,0.3c0.2,0,0.3-0.1,0.3-0.3C54.1,9.5,54,9.4,53.8,9.4z M54.9,5.5L55.7,6l0.8,0.5l0.3-1
	l0.3-1l-1-0.4L54.9,5.5z M55.2,20.5l-0.6-0.4v1.2h0.6c0.3,0,0.6-0.1,0.6-0.3C55.7,21,55.5,20.7,55.2,20.5z M48.8,14.5
	c-0.2,0-0.3,0.1-0.3,0.3c0,0.2,0.1,0.3,0.3,0.3c0.2,0,0.3-0.1,0.3-0.3C49.1,14.6,49,14.5,48.8,14.5z M37,9.1c0,0.5,0.1,0.9,0.2,0.9
	c0.1,0,0.4-0.4,0.5-0.9l0.3-0.9H37V9.1z M42.6,12.1l-1.4,0.6l1.1,0l1.1,0l-0.3-0.3L42.6,12.1z M45.3,13.8l-0.4,0.4l-0.4,0.4H46
	l-0.4-0.4L45.3,13.8z M46.4,10c-0.3,0-0.7,0.3-0.9,0.6l-0.3,0.6h1.7v-0.6C46.9,10.2,46.7,10,46.4,10z M255,0L76.3,0.2l0.2,0.4
	l1.2,2.1l5,0.2l-0.3-0.5C82.3,2.2,81.8,2,81.4,2h-0.8V1.5c0-0.3,0.2-0.6,0.4-0.8l0.4-0.4L82,0.9l0.7,0.6l0-0.5c0-0.3,0.2,0,0.5,0.6
	l0.4,1.1L86.3,3l2.6,0.2l0-0.7l0-0.7l0.5,0.9l0.5,0.9l1.2-1.7l0.3,0.7l0.3,0.7l0.8-1l0.8-1l0,1l0,1h1.1V1.4h2.7l0.7,1.2L98.5,2
	l0.7-0.6l1.6,2.3l3.5-1.1l3.5-1.1l0.7,0.6l0.7,0.6l0.4-0.4l0.4-0.4l-1.6-1.2l0.9,0.3c0.5,0.2,1.8,0.5,2.9,0.7l2,0.4L114,2.6
	l-0.3,0.5l1.7,0l1.7,0V1.4h0.9l0,1.3c0,0.7-0.2,1.6-0.5,2l-0.4,0.7h0.5c0.3,0,0.9-0.2,1.4-0.4l0.9-0.4l-1.3-1.6l0.3-0.3
	c0.2-0.2,0.8-0.3,1.5-0.4l1.2-0.1v-1l0.7,0.5l0.7,0.5l4.4-0.1l0.7,0.7l0.7,0.7L130,3c0.8-0.4,1.4-0.9,1.4-1.2V1.3l1.2,0.2l1.2,0.2
	l0.1,0.9l0.1,0.9l-0.2-0.7l-0.2-0.7l-1.3,0.5l0.2,1.1c0.1,0.6,0.3,1.7,0.4,2.4l0.3,1.3h1.4l0.6-1.7l0.6-1.7l1,0.3l1,0.3L137,3.8
	l-0.7-0.5l0.9-0.7l0.9-0.7v1.8h1.1V2.1l1.1-0.3l1.1-0.3V3l-0.7,0.2l-0.7,0.2l1,1.2l1,1.2l0.5-0.3l0.5-0.3l-0.3-0.8l-0.3-0.8l0.4,0.1
	c0.2,0,1.1,0,2.1,0l1.7-0.1l-0.8-0.5L145,2.7L144.3,3l-0.7,0.3V2.7c0-0.3,0.2-0.7,0.5-0.9l0.5-0.3l0.3,0.6l0.3,0.6h2.1l0,1.4
	l1.8-2.3l-0.3,0.9l-0.3,0.9l2.3,0.6l0.6-0.9l0.6-0.9l1,1l1,1l0.5-0.8l0.5-0.8l-0.3-0.5L154.5,2l1.3,0l1.3,0l-0.8,0.5l-0.8,0.5
	l1.5,0.4l1.5,0.4l0.7-0.4l0.7-0.4l-0.3,1.8L159,6.5h1.1V4.8l1.8,0.2l1.8,0.2l1.4,1.7l-0.7-2h1.6l0.7,0.9l0.7,0.9l0.7-0.6l0.7-0.6
	l2.1,0.2l2.1,0.2l-0.2-0.8l-0.2-0.8l1.5,1.2c0.8,0.7,1.7,1.2,1.9,1.2c0.2,0,0.6-0.4,0.8-1l0.4-1l-0.7-0.5c-0.4-0.3-0.9-0.5-1.2-0.5
	l-0.5,0l0.6,1.7L174.7,5c-0.4-0.2-0.8-0.5-0.8-0.8c0-0.3,0.2-0.6,0.4-0.8c0.2-0.2,1.8-0.3,3.5-0.3c0.6,0,1.4,0,2.2,0v1.3l0.7-0.8
	l-0.5-0.5c1.2,0,2.4,0.1,3.2,0.2l2.7,0.3l0.9,0.7l0.9,0.7l0.2-0.7l0.2-0.7l1,1l1,1V4.3h1.7v1l-1.8,0.6l-1.8,0.6l0.7,0.7l0.7,0.7
	l0.7-0.7l0.7-0.7h2.5l0.3,0.6l0.3,0.6h-1.2v1.7l1.7,0.7l1-0.4l1-0.4l-0.7-0.5c-0.4-0.3-0.7-0.7-0.7-1c0-0.3-0.1-0.8-0.3-1.2L194.8,6
	h-1.9V4.3h0.5c0.3,0,0.5,0.3,0.5,0.6v0.6h1.7V4.2l1,0.6l1,0.6l0.6-0.7l0.6-0.7v1.5l1.1-0.3l1.1-0.3l0,0.7l0,0.6l-2.1,0l0.5,0.9h3
	l1.5,2.4l1.6-1.7l-0.6-1.7l-3,0l-0.8,0l0.7-0.9l0.7-1h1.9l-0.8,1.3l1.3-0.4c0.7-0.2,1.4-0.6,1.5-0.9l0.2-0.4l1.1,0.3l1.1,0.3
	l-0.3,1.7l0.7,0.3l0.8,0.3l-0.4-1.2l-0.4-1.2h0.3c0.2,0,0.9,0.3,1.5,0.6l1.1,0.6L211.8,5l-0.3-0.6l0.9-0.3c0.5-0.2,1.2-0.3,1.7-0.3
	h0.8l-1.1,1.1l-1.1,1.1l0.3,2.2l0.3,2.2l-1.7,1.6l-1.7,1.6l0.3,0.3l0.3,0.3l0.7-0.7c0.4-0.4,1-0.7,1.3-0.7h0.7l0.5,2l-0.1-1.7
	l-0.1-1.7l1.1-0.2c0.6-0.1,1.3-0.5,1.6-0.8l0.5-0.5l-1.2-0.3l-1.2-0.3l0.3-0.5l0.3-0.5l1.1,0.6l1.1,0.6V8.3h-1.6L214.2,6h1.6
	l0.6-1.4l0.6,0.9l0.6,0.9l1-0.6l1-0.6l1.4,0.7l1.4,0.7l0.7-1.2l0.4,1.8l0.4,1.8l0.8-0.3l0.8-0.3l-0.3,0.9l-0.3,0.9l2.9-0.2l2.9-0.2
	l-0.2-0.9l-0.2-0.9h1.2l-0.3-1.1l-0.3-1.1l0.5-0.3l0.5-0.3l1,1.9l1.8-0.7l1.8,1.1c1,0.6,2,1.1,2.2,1.1l0.4,0V5.4h0.8
	c0.4,0,1.2-0.2,1.8-0.4l1-0.4l-0.9,0.8c-0.5,0.4-1.1,1.3-1.3,2l-0.4,1.2l0.6,0.4l0.6,0.4l0.6-0.7l0.6-0.7L242,8.5l-0.7,0.4V7.7h0.5
	c0.3,0,1-0.6,1.6-1.2l1.1-1.2l0.3,0.9l0.3,0.9l0.5-0.3l0.5-0.3l-0.4-0.7l-0.4-0.7l0.9,0.8l0.9,0.8v2.7h-0.6c-0.3,0-0.6-0.3-0.6-0.6
	V8.3l0,0l-3,0.5l3.5,1.5l-2,0l-1.2,0.8l0.9,0c0.5,0,5.7-0.4,6.6-0.3 M54.5,10.7l-0.4-0.4v1.5l0.7-0.8L54.5,10.7z M32.6,14.5
	c0,0.3,0.2,0.6,0.5,0.6c0.3,0,0.7-0.3,0.9-0.6l0.3-0.6h-1.7V14.5z M2.1,1.4L2.5,1l0.4-0.4l3.7-0.1l3.7-0.1l1.6,1.3L11.4,1L11,0.3
	h0.6c0.3,0,0.7,0.3,0.9,0.6l0.4,0.6l0.8-0.7l0.7-0.6H0L2.1,1.4z M68,17.6c-0.1,0-0.3,0.8-0.5,1.6l-0.4,1.6l1.7-0.4l1.7-0.4v2.4
	l0.4,0l0.4,0l0-3.3l0-3.3l-1.7,0.8C68.9,17.2,68.1,17.6,68,17.6z M58.5,10.2l-0.6-0.4v1.2h0.6c0.3,0,0.6-0.1,0.6-0.3
	C59,10.7,58.8,10.4,58.5,10.2z M71.6,0.2h-1.3l0.2,0.6l-0.8,0.7c-0.4,0.4-0.8,0.6-0.8,0.5c0-0.1-0.2-0.9-0.3-1.7H32.6c0,0,0,0,0,0
	v0.5l1.2,0.4l1.2,0.4L35.5,1L36,0.4l1.8,1l1.8,1L41,2.2l1.4-0.3l0.7,2.4h1.6l-0.3-0.5l-0.3-0.5l0.3-0.9l0.3-0.9h0.7
	c0.4,0,1.4,0.4,2.2,0.8l1.5,0.8l1.6-0.9l1.6-0.9L53,2l0.4,0.7l5.9,0.2L65.1,3V2.5c0-0.3,0.3-0.5,0.6-0.5h0.6L66,2.9l-0.3,0.9
	l0.9-0.3c0.5-0.2,1.7-0.3,2.6-0.3h1.8l0.7-1.2l0.7-1.2L71.6,0.2L71.6,0.2z M72.7,0.2L72.7,0.2l1.4,0.1L74,0.2H72.7z M115.8,9.8
	l-0.4,0.4l-0.4,0.4h1.5l-0.4-0.4L115.8,9.8z M107.8,7.7c-0.2,0-0.3,0.1-0.3,0.3c0,0.2,0.1,0.3,0.3,0.3c0.2,0,0.3-0.1,0.3-0.3
	C108.1,7.8,108,7.7,107.8,7.7z M107.3,10c-0.2,0-0.3,0.1-0.3,0.3c0,0.2,0.1,0.3,0.3,0.3c0.2,0,0.3-0.1,0.3-0.3
	C107.6,10.1,107.4,10,107.3,10z M106.7,15.1c-0.2,0-0.3,0.1-0.3,0.3c0,0.2,0.1,0.3,0.3,0.3s0.3-0.1,0.3-0.3
	C107,15.2,106.9,15.1,106.7,15.1z M108.7,4.6L108.3,5l-0.4,0.4h1.5L109,5L108.7,4.6z M33.1,8.5c0-0.2-0.1-0.3-0.3-0.3
	c-0.2,0-0.3,0.1-0.3,0.3c0,0.2,0.1,0.3,0.3,0.3C33,8.8,33.1,8.7,33.1,8.5z M120.6,13.4c-0.2,0-0.4,0.3-0.6,0.6
	c-0.2,0.3-0.2,0.6-0.1,0.6c0.2,0,0.4-0.3,0.6-0.6C120.7,13.6,120.7,13.4,120.6,13.4z M112.2,15.7c-0.2,0-0.3,0.1-0.3,0.3
	c0,0.2,0.1,0.3,0.3,0.3c0.2,0,0.3-0.1,0.3-0.3C112.5,15.8,112.4,15.7,112.2,15.7z M102,5.2l-0.4,0.4L101.3,6h1.5l-0.4-0.4L102,5.2z
	 M113.3,6.3L112.5,6l0.3,0.6c0.2,0.3,0.6,0.6,0.9,0.6c0.3,0,0.5-0.1,0.5-0.2C114.2,6.8,113.8,6.5,113.3,6.3z M114.5,8.3
	c-0.2,0-0.3,0.1-0.3,0.3c0,0.2,0.1,0.3,0.3,0.3c0.2,0,0.3-0.1,0.3-0.3C114.7,8.4,114.6,8.3,114.5,8.3z M24,14.5
	c-0.2,0-0.3,0.1-0.3,0.3c0,0.2,0.1,0.3,0.3,0.3c0.2,0,0.3-0.1,0.3-0.3C24.3,14.6,24.2,14.5,24,14.5z M24.3,11.1h-0.6v1.8l0.6-0.4
	c0.3-0.2,0.6-0.6,0.6-0.9S24.6,11.1,24.3,11.1z M28.4,11.7c-0.2,0-0.3,0.1-0.3,0.3c0,0.2,0.1,0.3,0.3,0.3s0.3-0.1,0.3-0.3
	C28.7,11.8,28.6,11.7,28.4,11.7z M96.3,22.5c-0.2,0-0.3,0.1-0.3,0.3c0,0.2,0.1,0.3,0.3,0.3c0.2,0,0.3-0.1,0.3-0.3
	C96.5,22.6,96.4,22.5,96.3,22.5z M31.7,0.2H14.5l0.7,0.6L16,1.5l1.1-0.7l0.7,1.1l4.5-0.3c2.5-0.2,5.5-0.4,6.7-0.5
	c1.2-0.1,2.4-0.2,2.7-0.3l0.4,0L31.7,0.2L31.7,0.2z M93.9,7.9l-0.7-0.1v0.5c0,0.3,0.3,0.6,0.7,0.7c0.4,0.1,0.8,0.2,0.9,0.1
	c0.1-0.1,0.1-0.4,0-0.6C94.7,8.2,94.3,7.9,93.9,7.9z M93.2,20v1.5l0.7-0.8l-0.4-0.4L93.2,20z M23.5,16.8c-0.2,0-0.3,0.1-0.3,0.3
	c0,0.2,0.1,0.3,0.3,0.3c0.2,0,0.3-0.1,0.3-0.3C23.8,16.9,23.6,16.8,23.5,16.8z M92.1,3.5l-0.4,0.4l-0.4,0.4h1.5l-0.4-0.4L92.1,3.5z
	 M219,7.1c-0.3,0-0.6,0.5-0.7,1.1l-0.3,1.1l0.3,0.3l0.3,0.3l1.3-1.1l0.4,0.4c0.2,0.2,0.1-0.2-0.2-0.9C219.7,7.7,219.2,7.1,219,7.1z
	 M210.7,5.7c0-0.2-0.1-0.3-0.3-0.3c-0.2,0-0.3,0.1-0.3,0.3c0,0.2,0.1,0.3,0.3,0.3C210.5,6,210.7,5.8,210.7,5.7z M209.7,10.8l0.6,0.4
	c0.3,0.2,0.7,0.4,0.7,0.4c0.1,0,0.1-0.6,0.1-1.3c0-0.7,0.1-1.7,0.3-2.3l0.4-1h-0.6c-0.3,0-0.8,0.3-1,0.7c-0.2,0.4-0.5,1.2-0.5,1.9
	L209.7,10.8z M246.5,12.8c-0.3,0-0.5,0.3-0.5,0.6v0.6h1.7l-0.3-0.6C247.1,13.1,246.7,12.8,246.5,12.8z M244,12.8h-0.8v1.1l0.8-0.3
	c0.5-0.2,0.8-0.4,0.8-0.6C244.8,12.9,244.5,12.8,244,12.8z M233.8,8v1.4h-2.7l-0.3,0.6l-0.3,0.6h3.9l0.7-1.2l-0.6-0.6L233.8,8z
	 M241,10.1l-1.5-0.3l-1.5-0.3l-1.7,1l2.9,0l0.7,0.9c0.4,0.5,0.8,0.8,1,0.8c0.2,0,0.7-0.3,1.2-0.6l0.8-0.6l-1.9,0V10.1z M222.7,12.5
	c-0.3-0.2-0.6-0.2-0.8-0.1c-0.1,0.1,0,1.1,0.4,2.1l0.6,1.9l0.8-1.4l-0.3-1.1C223.3,13.3,223,12.6,222.7,12.5z M224.4,10.5
	c-0.3,0-0.6,0.3-0.6,0.6c0,0.3,0.2,0.6,0.6,0.6c0.3,0,0.6-0.3,0.6-0.6C225,10.8,224.7,10.5,224.4,10.5z M222.4,10.2l0.3-0.9
	l-0.3-0.9c-0.2-0.5-0.5-0.9-0.8-0.9h-0.5v3.4h0.5C221.9,11.1,222.3,10.7,222.4,10.2z M224.7,15.7c-0.2,0-0.3,0.1-0.3,0.3
	c0,0.2,0.1,0.3,0.3,0.3c0.2,0,0.3-0.1,0.3-0.3C225,15.8,224.9,15.7,224.7,15.7z M233.1,12.4l-0.4-0.4l-0.4,0.4l-0.4,0.4h1.5
	L233.1,12.4z"/>
</svg>
