<?xml version="1.0" encoding="utf-8"?>
<!-- Generator: Adobe Illustrator 22.0.1, SVG Export Plug-In . SVG Version: 6.00 Build 0)  -->
<svg version="1.1" id="Layer_1" xmlns="http://www.w3.org/2000/svg" xmlns:xlink="http://www.w3.org/1999/xlink" x="0px" y="0px"
	 viewBox="0 0 498.2 23.6" style="enable-background:new 0 0 498.2 23.6;" xml:space="preserve">
<style type="text/css">
	.st0{fill:#FFFFFF;}
</style>
<path class="st0" d="M142.8,16.7h1.2l-0.3-0.6c-0.2-0.3-0.5-0.6-0.6-0.6s-0.2,0.3-0.2,0.6V16.7z M145.6,7.9c0-0.2-0.1-0.3-0.3-0.3
	c-0.2,0-0.3,0.1-0.3,0.3c0,0.2,0.1,0.3,0.3,0.3C145.5,8.2,145.6,8.1,145.6,7.9z M146.7,18.7l0.1-1.1l-0.7-0.1c-0.4-0.1-1,0-1.4,0.2
	l-0.7,0.3v1.5l1.4-0.4L146.7,18.7z M142.3,6.8c0-0.2-0.1-0.3-0.3-0.3c-0.2,0-0.3,0.1-0.3,0.3c0,0.2,0.1,0.3,0.3,0.3
	C142.2,7,142.3,6.9,142.3,6.8z M148.2,10.3l0.4-0.4l-0.7-0.8v1.5L148.2,10.3z M120.8,20.4l0.6,0.4V19h-0.6c-0.3,0-0.6,0.2-0.6,0.5
	C120.2,19.8,120.5,20.2,120.8,20.4z M155.7,15.5l-0.4,0.9c-0.2,0.5-0.4,1.3-0.4,1.8V19l0.7,0c0.4,0,1.1-0.3,1.5-0.6l0.8-0.5
	L155.7,15.5z M153.9,18.1c0-0.2-0.1-0.3-0.3-0.3c-0.2,0-0.3,0.1-0.3,0.3c0,0.2,0.1,0.3,0.3,0.3C153.7,18.4,153.9,18.3,153.9,18.1z
	 M139.5,16.2v0.6h1.7l-0.3-0.6c-0.2-0.3-0.6-0.6-0.9-0.6C139.8,15.6,139.5,15.8,139.5,16.2z M124.3,17.3h-1.5l0.4,0.4l0.4,0.4
	l0.4-0.4L124.3,17.3z M129.6,11.3c0-0.2-0.1-0.3-0.3-0.3c-0.2,0-0.3,0.1-0.3,0.3c0,0.2,0.1,0.3,0.3,0.3
	C129.5,11.6,129.6,11.5,129.6,11.3z M124.6,0.7c0-0.3-0.1-0.5-0.2-0.5c-0.1,0-0.5,0.4-0.9,0.9l-0.7,0.9l0.9-0.4
	C124.2,1.4,124.6,1,124.6,0.7z M125.8,19.2c0-0.1-0.4-0.2-0.8-0.2h-0.8v1.1l0.8-0.3C125.4,19.6,125.8,19.3,125.8,19.2z M140.6,14.3
	l0.7,0.2l-0.2-0.7c-0.1-0.4-0.6-0.9-1-1l-0.7-0.2l0.2,0.7C139.8,13.8,140.2,14.2,140.6,14.3z M133.5,11.9c0-0.2-0.1-0.3-0.3-0.3
	c-0.2,0-0.3,0.1-0.3,0.3c0,0.2,0.1,0.3,0.3,0.3C133.3,12.2,133.5,12,133.5,11.9z M218.4,13c0-0.2-0.1-0.3-0.3-0.3
	c-0.2,0-0.3,0.1-0.3,0.3c0,0.2,0.1,0.3,0.3,0.3C218.2,13.3,218.4,13.2,218.4,13z M133.7,14.1c0.2-0.2,0.4-0.6,0.4-0.8
	c0-0.3-0.2-0.5-0.5-0.5c-0.3,0-0.7,0.2-0.8,0.5l-0.3,0.5l1,0.6L133.7,14.1z M134,15.3c0-0.2-0.1-0.3-0.3-0.3c-0.2,0-0.3,0.1-0.3,0.3
	c0,0.2,0.1,0.3,0.3,0.3C133.9,15.6,134,15.5,134,15.3z M163,11.6c-0.2,0-0.3,0.1-0.3,0.3c0,0.2,0.1,0.3,0.3,0.3
	c0.2,0,0.3-0.1,0.3-0.3C163.2,11.7,163.1,11.6,163,11.6z M197.5,17.8l0.8-0.5l-1.5,0c-0.8,0-1.5,0.1-1.5,0.2c0,0.1,0.3,0.4,0.7,0.5
	l0.7,0.3L197.5,17.8z M196,9.9l1.9,0V9.3c0-0.3-0.1-0.6-0.1-0.6c-0.1,0-0.5,0.3-1,0.6L196,9.9z M184.2,15.8c0-0.1-0.4-0.2-0.9-0.2
	h-0.9l0.3,0.6l0.3,0.6l0.5-0.3C184,16.2,184.2,16,184.2,15.8z M186.9,5.6c0-0.2-0.1-0.3-0.3-0.3c-0.2,0-0.3,0.1-0.3,0.3
	c0,0.2,0.1,0.3,0.3,0.3C186.8,5.9,186.9,5.8,186.9,5.6z M196.3,11h-1.7l0.3,0.6c0.2,0.3,0.6,0.6,0.9,0.6c0.3,0,0.5-0.3,0.5-0.6V11z
	 M200.2,14.5c0.3-0.6,0.6-1.2,0.6-1.4c0-0.2-0.3-0.3-0.7-0.3c-0.4,0-0.9,0.2-1.1,0.4c-0.2,0.2-0.4,0.9-0.4,1.4v1h0.5
	C199.3,15.6,199.8,15.1,200.2,14.5z M165.2,16.2l-0.3,0.6h1.2v-0.6c0-0.3-0.1-0.6-0.2-0.6C165.6,15.6,165.4,15.8,165.2,16.2z
	 M215.6,9.6c0-0.2-0.1-0.3-0.3-0.3c-0.2,0-0.3,0.1-0.3,0.3c0,0.2,0.1,0.3,0.3,0.3C215.5,9.9,215.6,9.8,215.6,9.6z M208.1,13.4
	l0.3-1.9h-0.9l-0.3,1.8l-0.3,1.8l0.3,0.3c0.2,0.2,0.4,0.2,0.5,0.1C207.6,15.4,207.9,14.5,208.1,13.4z M207.1,17.9
	c-0.2,0-0.3,0.1-0.3,0.3c0,0.2,0.1,0.3,0.3,0.3c0.2,0,0.3-0.1,0.3-0.3C207.3,18,207.2,17.9,207.1,17.9z M169.3,7.8l0.4-0.4L170,7
	h-1.5l0.4,0.4L169.3,7.8z M188,15h1.8l-0.3-0.6c-0.2-0.3-0.4-0.6-0.6-0.6c-0.1,0-0.4,0.3-0.6,0.6L188,15z M169.6,16.7
	c-0.2,0-0.3,0.1-0.3,0.3c0,0.2,0.1,0.3,0.3,0.3c0.2,0,0.3-0.1,0.3-0.3C169.9,16.9,169.7,16.7,169.6,16.7z M167.4,16.2
	c-0.2,0-0.3,0.1-0.3,0.3c0,0.2,0.1,0.3,0.3,0.3c0.2,0,0.3-0.1,0.3-0.3C167.7,16.3,167.5,16.2,167.4,16.2z M176.7,15l-0.7-0.8v1.5
	l0.4-0.4L176.7,15z M177.6,9.9h1.2l-0.3-0.6c-0.2-0.3-0.4-0.6-0.6-0.6c-0.1,0-0.2,0.3-0.2,0.6V9.9z M188.3,17.4h-2.8l0.7,0.3
	l0.7,0.3l0.7-0.3L188.3,17.4z M185,16.2c-0.2,0-0.3,0.1-0.3,0.3c0,0.2,0.1,0.3,0.3,0.3c0.2,0,0.3-0.1,0.3-0.3
	C185.3,16.3,185.2,16.2,185,16.2z M187.5,9.2V8.8h-1.7v1.1h-1.7v0.6c0,0.3,0.1,0.6,0.2,0.6c0.1,0,0.9-0.3,1.7-0.7
	C186.9,10,187.5,9.5,187.5,9.2z M137.9,17.3v-0.6h-1.2l0.3,0.6c0.2,0.3,0.5,0.6,0.6,0.6C137.8,17.9,137.9,17.6,137.9,17.3z
	 M46.2,11.4l0.4-0.4l-0.7-0.8v1.5L46.2,11.4z M54.1,14.2c0-0.2-0.1-0.3-0.3-0.3c-0.2,0-0.3,0.1-0.3,0.3c0,0.2,0.1,0.3,0.3,0.3
	C54,14.4,54.1,14.3,54.1,14.2z M56.2,19.7l1-0.4l-0.3-1l-0.3-1l-0.8,0.5l-0.8,0.5L56.2,19.7z M55.7,2.7c0-0.1-0.2-0.3-0.6-0.3h-0.6
	v1.2l0.6-0.4C55.5,3.1,55.7,2.9,55.7,2.7z M49.1,9c0-0.2-0.1-0.3-0.3-0.3c-0.2,0-0.3,0.1-0.3,0.3c0,0.2,0.1,0.3,0.3,0.3
	C49,9.3,49.1,9.2,49.1,9z M37,15.6h1.1l-0.3-0.9c-0.2-0.5-0.4-0.9-0.5-0.9c-0.1,0-0.2,0.4-0.2,0.9V15.6z M42.9,11.4l0.3-0.3l-1.1,0
	l-1.1,0l1.4,0.6L42.9,11.4z M45.6,9.7L46,9.3h-1.5l0.4,0.4l0.4,0.4L45.6,9.7z M46.9,13.3v-0.6h-1.7l0.3,0.6c0.2,0.3,0.6,0.6,0.9,0.6
	C46.7,13.9,46.9,13.6,46.9,13.3z M254.6,12.6c-0.9,0.1-9.5,0.2-10,0.2l-0.9,0l-0.3,0.9l-0.3,0.9l0.3,0.5l0.3,0.5h2.7V15
	c0-0.3,0.2-0.6,0.6-0.6h0.6v2.7l-0.9,0.8l-0.9,0.8l0.4-0.7l0.4-0.7l-0.5-0.3l-0.5-0.3l-0.3,0.9l-0.3,0.9l-1.1-1.2
	c-0.6-0.7-1.4-1.2-1.6-1.2h-0.5v-1.2l0.7,0.4l0.7,0.4L242,15l-0.6-0.7l-0.6,0.4l-0.6,0.4l0.4,1.2c0.2,0.7,0.8,1.6,1.3,2l0.9,0.8
	l-1-0.4c-0.6-0.2-1.4-0.4-1.8-0.4h-0.8v-2.8l-0.4,0c-0.2,0-1.2,0.5-2.2,1.1l-1.8,1.1l-1.8-0.7l-1,1.9l-0.5-0.3l-0.5-0.3l0.3-1.1
	l0.3-1.1h-1.2l0.2-0.9l0.2-0.9l-2.9-0.2l-2.9-0.2l0.3,0.9l0.3,0.9l-0.8-0.3l-0.8-0.3l-0.4,1.8l-0.4,1.8l-0.7-1.2l-1.4,0.7l-1.4,0.7
	l-1-0.6l-1-0.6l-0.6,0.9l-0.6,0.9l-0.6-1.4h-1.6l1.2-2.3h1.6v-1.2l-1.1,0.6l-1.1,0.6l-0.3-0.5l-0.3-0.5l1.2-0.3l1.2-0.3l-0.5-0.5
	c-0.3-0.3-1-0.6-1.6-0.8l-1.1-0.2l0.1-1.7l0.1-1.7l-0.5,2h-0.7c-0.4,0-1-0.3-1.3-0.7l-0.7-0.7l-0.3,0.3l-0.3,0.3l1.7,1.6l1.7,1.6
	l-0.3,2.2l-0.3,2.2l1.1,1.1l1.1,1.1H214c-0.4,0-1.2-0.2-1.7-0.3l-0.9-0.3l0.3-0.6l0.3-0.6l-1.1,0.6c-0.6,0.3-1.3,0.6-1.5,0.6h-0.3
	l0.4-1.2l0.4-1.2l-0.8,0.3l-0.7,0.3l0.3,1.7l-1.1,0.3l-1.1,0.3l-0.2-0.4c-0.1-0.2-0.8-0.6-1.5-0.9l-1.3-0.4l0.8,1.3h-1.9l-0.7-1
	l-0.7-0.9l0.8,0l3,0l0.6-1.7l-1.6-1.7l-1.5,2.4h-3l-0.5,0.9l2.1,0l0,0.6l0,0.7l-1.1-0.3l-1.1-0.3v1.5l-0.6-0.7l-0.6-0.7l-1,0.6
	l-1,0.6v-1.2h-1.7V19c0,0.3-0.2,0.6-0.5,0.6h-0.5v-1.7h1.9l0.3-0.7c0.1-0.4,0.3-0.9,0.3-1.2c0-0.3,0.3-0.7,0.7-1l0.7-0.5l-1-0.4
	l-1-0.4l-1.7,0.7v1.7h1.2l-0.3,0.6l-0.3,0.6h-2.5l-0.7-0.7l-0.7-0.7l-0.7,0.7l-0.7,0.7l1.8,0.6l1.8,0.6v1h-1.7v-1.3l-1,1l-1,1
	l-0.2-0.7l-0.2-0.7l-0.9,0.7l-0.9,0.7l-2.7,0.3c-0.8,0.1-2.1,0.1-3.2,0.2l0.5-0.5l-0.7-0.8v1.3c-0.8,0-1.5,0-2.2,0
	c-1.7,0-3.2-0.2-3.5-0.3c-0.2-0.2-0.4-0.5-0.4-0.8c0-0.3,0.4-0.6,0.8-0.8l0.8-0.3l-0.6,1.7l0.5,0c0.3,0,0.8-0.2,1.2-0.5l0.7-0.5
	l-0.4-1c-0.2-0.5-0.5-1-0.8-1c-0.2,0-1.1,0.5-1.9,1.2l-1.5,1.2l0.2-0.8l0.2-0.8l-2.1,0.2l-2.1,0.2l-0.7-0.6l-0.7-0.6l-0.7,0.9
	L166,19h-1.6l0.7-2l-1.4,1.7l-1.8,0.2l-1.8,0.2v-1.8H159l0.3,1.8l0.3,1.8l-0.7-0.4l-0.7-0.4l-1.5,0.4l-1.5,0.4l0.8,0.5l0.8,0.5
	l-1.3,0l-1.3,0l0.3-0.5l0.3-0.5l-0.5-0.8l-0.5-0.8l-1,1l-1,1l-0.6-0.9l-0.6-0.9l-2.3,0.6l0.3,0.9l0.3,0.9l-1.8-2.3l0,1.4h-2.1
	l-0.3,0.6l-0.3,0.6l-0.5-0.3c-0.3-0.2-0.5-0.6-0.5-0.9v-0.6l0.7,0.3l0.7,0.3l0.8-0.5l0.8-0.5l-1.7-0.1c-0.9,0-1.8,0-2.1,0l-0.4,0.1
	l0.3-0.8l0.3-0.8l-0.5-0.3l-0.5-0.3l-1,1.2l-1,1.2l0.7,0.2l0.7,0.2v1.5l-1.1-0.3l-1.1-0.3v-1.6H138V22l-0.9-0.7l-0.9-0.7L137,20
	l0.7-0.5l-1,0.3l-1,0.3l-0.6-1.7l-0.6-1.7h-1.4l-0.3,1.3c-0.1,0.7-0.3,1.8-0.4,2.4l-0.2,1.1l1.3,0.5l0.2-0.7l0.2-0.7l-0.1,0.9
	l-0.1,0.9l-1.2,0.2l-1.2,0.2V22c0-0.3-0.6-0.8-1.4-1.2l-1.4-0.6l-0.7,0.7l-0.7,0.7l-4.4-0.1l-0.7,0.5l-0.7,0.5v-1l-1.2-0.1
	c-0.6,0-1.3-0.2-1.5-0.4l-0.3-0.3l1.3-1.6l-0.9-0.4c-0.5-0.2-1.1-0.4-1.4-0.4h-0.5l0.4,0.7c0.2,0.4,0.5,1.3,0.5,2l0,1.3H117v-1.5
	l-1.7,0l-1.7,0l0.3,0.5l0.3,0.5l-2,0.4c-1.1,0.2-2.4,0.5-2.9,0.7l-0.9,0.3l1.6-1.2l-0.4-0.4l-0.4-0.4l-0.7,0.6l-0.7,0.6l-3.5-1.1
	l-3.5-1.1l-1.6,2.3l-0.7-0.6l-0.7-0.6l-0.7,1.2h-2.7v-1.7h-1.1l0,1l0,1l-0.8-1l-0.8-1l-0.3,0.7l-0.3,0.7l-1.2-1.7l-0.5,0.9l-0.5,0.9
	l0-0.7l0-0.7l-2.6,0.2l-2.6,0.2l-0.4,1.1c-0.2,0.6-0.4,0.9-0.5,0.6l0-0.5L82,22.9l-0.7,0.6l-0.4-0.4c-0.2-0.2-0.4-0.6-0.4-0.8v-0.5
	h0.8c0.4,0,0.9-0.2,1.1-0.5l0.3-0.5l-5,0.2l-1.2,2.1l-0.2,0.4h166.9 M54.8,12.7L54.1,12v1.5l0.4-0.4L54.8,12.7z M32.6,9.9h1.7
	L34,9.3c-0.2-0.3-0.6-0.6-0.9-0.6c-0.3,0-0.5,0.3-0.5,0.6V9.9z M0,23.6h14.3L13.6,23l-0.8-0.7L12.5,23c-0.2,0.3-0.6,0.6-0.9,0.6H11
	l0.4-0.7l0.4-0.7l-1.6,1.3l-3.7-0.1l-3.7-0.1l-0.4-0.4l-0.4-0.4L0,23.6z M69.8,7.1L71.5,8l0-3.3l0-3.3l-0.4,0l-0.4,0v2.4l-1.7-0.4
	l-1.7-0.4l0.4,1.6C67.8,5.5,68,6.2,68,6.2C68.1,6.3,68.9,6.7,69.8,7.1z M59,13c0-0.1-0.2-0.3-0.6-0.3h-0.6v1.2l0.6-0.4
	C58.8,13.4,59,13.1,59,13z M71.6,23.6l0.7-0.5l-0.7-1.2l-0.7-1.2h-1.8c-1,0-2.1-0.2-2.6-0.3L65.6,20l0.3,0.9l0.3,0.9h-0.6
	c-0.3,0-0.6-0.2-0.6-0.5v-0.5L59.2,21l-5.9,0.2L53,21.9l-0.4,0.7l-1.6-0.9l-1.6-0.9l-1.5,0.8c-0.8,0.5-1.8,0.8-2.2,0.8h-0.7
	l-0.3-0.9l-0.3-0.9l0.3-0.5l0.3-0.5h-1.6L42.4,22L41,21.7l-1.4-0.3l-1.8,1l-1.8,1l-0.6-0.6l-0.6-0.6l-1.2,0.4l-1.2,0.4v0.5
	c0,0,0,0,0,0h36.1c0.1-0.8,0.3-1.6,0.3-1.7c0-0.1,0.4,0.1,0.8,0.5l0.8,0.7l-0.2,0.6L71.6,23.6L71.6,23.6z M74,23.6L74,23.6l-1.4-0.1
	l0.1,0.1H74z M116.2,13.7l0.4-0.4h-1.5l0.4,0.4l0.4,0.4L116.2,13.7z M108.1,15.9c0-0.2-0.1-0.3-0.3-0.3c-0.2,0-0.3,0.1-0.3,0.3
	c0,0.2,0.1,0.3,0.3,0.3C108,16.2,108.1,16,108.1,15.9z M107.6,13.6c0-0.2-0.1-0.3-0.3-0.3c-0.2,0-0.3,0.1-0.3,0.3
	c0,0.2,0.1,0.3,0.3,0.3C107.4,13.9,107.6,13.7,107.6,13.6z M107,8.5c0-0.2-0.1-0.3-0.3-0.3s-0.3,0.1-0.3,0.3c0,0.2,0.1,0.3,0.3,0.3
	S107,8.6,107,8.5z M109,18.8l0.4-0.4h-1.5l0.4,0.4l0.4,0.4L109,18.8z M32.9,15c-0.2,0-0.3,0.1-0.3,0.3c0,0.2,0.1,0.3,0.3,0.3
	c0.2,0,0.3-0.1,0.3-0.3C33.1,15.1,33,15,32.9,15z M120.5,9.9c-0.2-0.3-0.5-0.6-0.6-0.6c-0.1,0-0.1,0.3,0.1,0.6
	c0.2,0.3,0.5,0.6,0.6,0.6C120.7,10.5,120.7,10.2,120.5,9.9z M112.5,7.9c0-0.2-0.1-0.3-0.3-0.3c-0.2,0-0.3,0.1-0.3,0.3
	c0,0.2,0.1,0.3,0.3,0.3C112.4,8.2,112.5,8.1,112.5,7.9z M102.4,18.2l0.4-0.4h-1.5l0.4,0.4l0.4,0.4L102.4,18.2z M114.2,16.9
	c0-0.1-0.2-0.2-0.5-0.2c-0.3,0-0.7,0.3-0.9,0.6l-0.3,0.6l0.9-0.3C113.8,17.3,114.2,17.1,114.2,16.9z M114.7,15.3
	c0-0.2-0.1-0.3-0.3-0.3c-0.2,0-0.3,0.1-0.3,0.3c0,0.2,0.1,0.3,0.3,0.3C114.6,15.6,114.7,15.5,114.7,15.3z M24.3,9
	c0-0.2-0.1-0.3-0.3-0.3c-0.2,0-0.3,0.1-0.3,0.3c0,0.2,0.1,0.3,0.3,0.3C24.2,9.3,24.3,9.2,24.3,9z M24.9,12.2c0-0.3-0.2-0.7-0.6-0.9
	L23.8,11v1.8h0.6C24.6,12.7,24.9,12.5,24.9,12.2z M28.7,11.9c0-0.2-0.1-0.3-0.3-0.3s-0.3,0.1-0.3,0.3c0,0.2,0.1,0.3,0.3,0.3
	S28.7,12,28.7,11.9z M96.5,1.1c0-0.2-0.1-0.3-0.3-0.3c-0.2,0-0.3,0.1-0.3,0.3c0,0.2,0.1,0.3,0.3,0.3C96.4,1.3,96.5,1.2,96.5,1.1z
	 M31.8,23.6l0.3-0.6l-0.4,0c-0.2,0-1.4-0.1-2.7-0.3c-1.2-0.1-4.2-0.4-6.7-0.5l-4.5-0.3L17.1,23L16,22.3L15.2,23l-0.7,0.6L31.8,23.6
	L31.8,23.6z M94.8,15.4c0.1-0.3,0.1-0.5,0-0.6c-0.1-0.1-0.5,0-0.9,0.1c-0.4,0.1-0.7,0.5-0.7,0.7v0.5l0.7-0.1
	C94.3,15.9,94.7,15.6,94.8,15.4z M93.6,3.4L94,3.1l-0.7-0.8v1.5L93.6,3.4z M23.8,6.8c0-0.2-0.1-0.3-0.3-0.3c-0.2,0-0.3,0.1-0.3,0.3
	c0,0.2,0.1,0.3,0.3,0.3C23.6,7,23.8,6.9,23.8,6.8z M92.5,20l0.4-0.4h-1.5l0.4,0.4l0.4,0.4L92.5,20z M220.1,15.4
	c0.4-0.7,0.4-1.1,0.2-0.9l-0.4,0.4l-1.3-1.1l-0.3,0.3l-0.3,0.3l0.3,1.1c0.2,0.6,0.5,1.1,0.7,1.1C219.2,16.7,219.7,16.1,220.1,15.4z
	 M210.4,17.9c-0.2,0-0.3,0.1-0.3,0.3c0,0.2,0.1,0.3,0.3,0.3c0.2,0,0.3-0.1,0.3-0.3C210.7,18,210.5,17.9,210.4,17.9z M209.8,14.2
	c0,0.6,0.3,1.5,0.5,1.9c0.2,0.4,0.7,0.7,1,0.7h0.6l-0.4-1c-0.2-0.5-0.4-1.6-0.3-2.3c0-0.7,0-1.3-0.1-1.3c-0.1,0-0.4,0.2-0.7,0.4
	l-0.6,0.4L209.8,14.2z M247.3,10.5l0.3-0.6h-1.7v0.6c0,0.3,0.2,0.6,0.5,0.6C246.7,11,247.1,10.8,247.3,10.5z M246.8,7.6h0.8V5.9
	h-0.7c-0.4,0-0.9,0.2-1.1,0.4l-0.4,0.4l0.3,0.5C245.9,7.4,246.4,7.6,246.8,7.6z M244.8,10.8c0-0.1-0.4-0.4-0.8-0.6l-0.8-0.3V11h0.8
	C244.5,11,244.8,10.9,244.8,10.8z M246.5,3.3c0-0.2-0.1-0.3-0.3-0.3c-0.2,0-0.3,0.1-0.3,0.3c0,0.2,0.1,0.3,0.3,0.3
	C246.4,3.6,246.5,3.5,246.5,3.3z M241.9,6.9l0.4-0.4h-1.5l0.4,0.4l0.4,0.4L241.9,6.9z M234.4,15.2l0.6-0.6l-0.7-1.2h-3.9l0.3,0.6
	l0.3,0.6h2.7v1.4L234.4,15.2z M241,12.7l1.9,0l-0.8-0.6c-0.5-0.3-1-0.6-1.2-0.6c-0.2,0-0.7,0.4-1,0.8l-0.7,0.9l-2.9,0l1.7,1l1.5-0.3
	l1.5-0.3V12.7z M223.5,10l0.3-1.1l-0.8-1.4l-0.6,1.9c-0.3,1-0.5,2-0.4,2.1c0.1,0.1,0.5,0.1,0.8-0.1C223,11.2,223.3,10.6,223.5,10z
	 M225,12.7c0-0.3-0.2-0.6-0.6-0.6c-0.3,0-0.6,0.3-0.6,0.6c0,0.3,0.2,0.6,0.6,0.6C224.7,13.3,225,13.1,225,12.7z M221.6,12.7h-0.5
	v3.4h0.5c0.3,0,0.6-0.4,0.8-0.9l0.3-0.9l-0.3-0.9C222.3,13.1,221.9,12.7,221.6,12.7z M225,7.9c0-0.2-0.1-0.3-0.3-0.3
	c-0.2,0-0.3,0.1-0.3,0.3c0,0.2,0.1,0.3,0.3,0.3C224.9,8.2,225,8.1,225,7.9z M234.1,2.9l2-2.7l-0.7,0c-0.4,0-1.1,0.2-1.5,0.5
	l-0.8,0.5l0.5,0.9L234.1,2.9z M234.9,5.9c0.3,0,0.6-0.3,0.6-0.6c0-0.3-0.2-0.6-0.6-0.6c-0.3,0-0.6,0.3-0.6,0.6
	C234.4,5.6,234.6,5.9,234.9,5.9z M233.4,11H232l0.4,0.4l0.4,0.4l0.4-0.4L233.4,11z"/>
<path class="st0" d="M355.3,15.9c0-0.3-0.1-0.6-0.2-0.6c-0.1,0-0.4,0.3-0.6,0.6l-0.3,0.6h1.2V15.9z M352.8,8c0.2,0,0.3-0.1,0.3-0.3
	c0-0.2-0.1-0.3-0.3-0.3c-0.2,0-0.3,0.1-0.3,0.3C352.6,7.8,352.7,8,352.8,8z M352.9,18.9l1.4,0.4v-1.5l-0.7-0.3
	c-0.4-0.2-1-0.2-1.4-0.2l-0.7,0.1l0.1,1.1L352.9,18.9z M356.2,6.8c0.2,0,0.3-0.1,0.3-0.3c0-0.2-0.1-0.3-0.3-0.3s-0.3,0.1-0.3,0.3
	C355.9,6.7,356,6.8,356.2,6.8z M350.4,10.4V8.9l-0.7,0.8l0.4,0.4L350.4,10.4z M377.9,19.3c0-0.3-0.2-0.5-0.6-0.5h-0.6v1.8l0.6-0.4
	C377.7,20,377.9,19.6,377.9,19.3z M340.2,17.7l0.8,0.5c0.5,0.3,1.1,0.5,1.5,0.6l0.7,0V18c0-0.4-0.2-1.2-0.4-1.8l-0.4-0.9L340.2,17.7
	z M344.6,18.2c0.2,0,0.3-0.1,0.3-0.3c0-0.2-0.1-0.3-0.3-0.3c-0.2,0-0.3,0.1-0.3,0.3C344.3,18.1,344.4,18.2,344.6,18.2z M358.1,15.4
	c-0.3,0-0.7,0.3-0.9,0.6l-0.3,0.6h1.7v-0.6C358.6,15.6,358.4,15.4,358.1,15.4z M374.3,17.5l0.4,0.4l0.4-0.4l0.4-0.4h-1.5L374.3,17.5
	z M368.8,11.4c0.2,0,0.3-0.1,0.3-0.3c0-0.2-0.1-0.3-0.3-0.3c-0.2,0-0.3,0.1-0.3,0.3C368.6,11.3,368.7,11.4,368.8,11.4z M374.4,1.4
	l0.9,0.4l-0.7-0.9c-0.4-0.5-0.8-0.9-0.9-0.9c-0.1,0-0.2,0.2-0.2,0.5S373.9,1.2,374.4,1.4z M373.2,19.6l0.8,0.3v-1.1h-0.8
	c-0.5,0-0.8,0.1-0.8,0.2C372.4,19.1,372.8,19.4,373.2,19.6z M358.5,13.1l0.2-0.7l-0.7,0.2c-0.4,0.1-0.8,0.6-1,1l-0.2,0.7l0.7-0.2
	C358,14,358.4,13.5,358.5,13.1z M365,12c0.2,0,0.3-0.1,0.3-0.3c0-0.2-0.1-0.3-0.3-0.3c-0.2,0-0.3,0.1-0.3,0.3
	C364.7,11.8,364.8,12,365,12z M280.1,13.1c0.2,0,0.3-0.1,0.3-0.3c0-0.2-0.1-0.3-0.3-0.3c-0.2,0-0.3,0.1-0.3,0.3
	C279.8,13,279.9,13.1,280.1,13.1z M364.9,14.2l1-0.6l-0.3-0.5c-0.2-0.3-0.5-0.5-0.8-0.5c-0.3,0-0.5,0.2-0.5,0.5
	c0,0.3,0.2,0.6,0.4,0.8L364.9,14.2z M364.4,15.4c0.2,0,0.3-0.1,0.3-0.3c0-0.2-0.1-0.3-0.3-0.3c-0.2,0-0.3,0.1-0.3,0.3
	C364.1,15.2,364.3,15.4,364.4,15.4z M334.9,11.7c0,0.2,0.1,0.3,0.3,0.3c0.2,0,0.3-0.1,0.3-0.3c0-0.2-0.1-0.3-0.3-0.3
	C335.1,11.4,334.9,11.5,334.9,11.7z M301.5,18.1l0.7-0.3c0.4-0.2,0.7-0.4,0.7-0.5c0-0.1-0.7-0.2-1.5-0.2l-1.5,0l0.8,0.5L301.5,18.1z
	 M301.3,9.1c-0.5-0.3-0.9-0.6-1-0.6c-0.1,0-0.1,0.2-0.1,0.6v0.6l1.9,0L301.3,9.1z M314.5,16.2l0.5,0.3l0.3-0.6l0.3-0.6h-0.9
	c-0.5,0-0.9,0.1-0.9,0.2C314,15.8,314.2,16,314.5,16.2z M311.5,5.7c0.2,0,0.3-0.1,0.3-0.3c0-0.2-0.1-0.3-0.3-0.3s-0.3,0.1-0.3,0.3
	C311.2,5.6,311.3,5.7,311.5,5.7z M301.8,11.4c0,0.3,0.2,0.6,0.5,0.6c0.3,0,0.7-0.3,0.9-0.6l0.3-0.6h-1.7V11.4z M299.1,15.4h0.5v-1
	c0-0.6-0.2-1.2-0.4-1.4c-0.2-0.2-0.7-0.4-1.1-0.4c-0.4,0-0.7,0.1-0.7,0.3c0,0.2,0.3,0.8,0.6,1.4C298.3,14.9,298.8,15.4,299.1,15.4z
	 M332.4,15.4c-0.1,0-0.2,0.3-0.2,0.6v0.6h1.2l-0.3-0.6C332.8,15.6,332.5,15.4,332.4,15.4z M282.8,9.7c0.2,0,0.3-0.1,0.3-0.3
	c0-0.2-0.1-0.3-0.3-0.3c-0.2,0-0.3,0.1-0.3,0.3C282.6,9.6,282.7,9.7,282.8,9.7z M290.6,15.3c0.1,0.1,0.3,0.1,0.5-0.1l0.3-0.3
	l-0.3-1.8l-0.3-1.8h-0.9l0.3,1.9C290.3,14.3,290.5,15.2,290.6,15.3z M290.8,17.9c0,0.2,0.1,0.3,0.3,0.3c0.2,0,0.3-0.1,0.3-0.3
	c0-0.2-0.1-0.3-0.3-0.3C290.9,17.7,290.8,17.8,290.8,17.9z M329.2,7.2l0.4-0.4h-1.5l0.4,0.4l0.4,0.4L329.2,7.2z M309.8,14.2
	c-0.2-0.3-0.4-0.6-0.6-0.6c-0.1,0-0.4,0.3-0.6,0.6l-0.3,0.6h1.8L309.8,14.2z M328.3,16.8c0,0.2,0.1,0.3,0.3,0.3
	c0.2,0,0.3-0.1,0.3-0.3c0-0.2-0.1-0.3-0.3-0.3C328.4,16.5,328.3,16.6,328.3,16.8z M330.5,16.2c0,0.2,0.1,0.3,0.3,0.3
	c0.2,0,0.3-0.1,0.3-0.3c0-0.2-0.1-0.3-0.3-0.3C330.6,15.9,330.5,16.1,330.5,16.2z M321.9,15.2l0.4,0.4V14l-0.7,0.8L321.9,15.2z
	 M320.6,9.1c0-0.3-0.1-0.6-0.2-0.6c-0.1,0-0.4,0.3-0.6,0.6l-0.3,0.6h1.2V9.1z M310.5,17.5l0.7,0.3l0.7-0.3l0.7-0.3h-2.8L310.5,17.5z
	 M312.9,16.2c0,0.2,0.1,0.3,0.3,0.3c0.2,0,0.3-0.1,0.3-0.3c0-0.2-0.1-0.3-0.3-0.3C313,15.9,312.9,16.1,312.9,16.2z M312.1,10.2
	c0.8,0.4,1.5,0.7,1.7,0.7c0.1,0,0.2-0.3,0.2-0.6V9.7h-1.7V8.5h-1.7V9C310.7,9.3,311.3,9.8,312.1,10.2z M360.5,17.7
	c0.1,0,0.4-0.3,0.6-0.6l0.3-0.6h-1.2v0.6C360.3,17.4,360.4,17.7,360.5,17.7z M452.4,11.6v-1.5l-0.7,0.8l0.4,0.4L452.4,11.6z
	 M444.4,14.2c0.2,0,0.3-0.1,0.3-0.3c0-0.2-0.1-0.3-0.3-0.3c-0.2,0-0.3,0.1-0.3,0.3C444.1,14.1,444.2,14.2,444.4,14.2z M443.2,18.2
	l-0.8-0.5l-0.8-0.5l-0.3,1l-0.3,1l1,0.4L443.2,18.2z M443,3.1l0.6,0.4V2.3H443c-0.3,0-0.6,0.1-0.6,0.3C442.4,2.7,442.7,2.9,443,3.1z
	 M449.3,9.1c0.2,0,0.3-0.1,0.3-0.3c0-0.2-0.1-0.3-0.3-0.3c-0.2,0-0.3,0.1-0.3,0.3C449,9,449.2,9.1,449.3,9.1z M461.2,14.5
	c0-0.5-0.1-0.9-0.2-0.9c-0.1,0-0.4,0.4-0.5,0.9l-0.3,0.9h1.1V14.5z M455.6,11.5l1.4-0.6l-1.1,0l-1.1,0l0.3,0.3L455.6,11.5z
	 M452.9,9.9l0.4-0.4l0.4-0.4h-1.5l0.4,0.4L452.9,9.9z M451.8,13.7c0.3,0,0.7-0.3,0.9-0.6l0.3-0.6h-1.7v0.6
	C451.2,13.4,451.5,13.7,451.8,13.7z M243.2,23.6l178.7-0.2l-0.2-0.4l-1.2-2.1l-5-0.2l0.3,0.5c0.2,0.3,0.6,0.5,1.1,0.5h0.8v0.5
	c0,0.3-0.2,0.6-0.4,0.8l-0.4,0.4l-0.7-0.6l-0.7-0.6l0,0.5c0,0.3-0.2,0-0.5-0.6l-0.4-1.1l-2.6-0.2l-2.6-0.2l0,0.7l0,0.7l-0.5-0.9
	l-0.5-0.9l-1.2,1.7l-0.3-0.7l-0.3-0.7l-0.8,1l-0.8,1l0-1l0-1h-1.1v1.7h-2.7l-0.7-1.2l-0.7,0.6l-0.7,0.6l-1.6-2.3l-3.5,1.1l-3.5,1.1
	l-0.7-0.6l-0.7-0.6l-0.4,0.4l-0.4,0.4l1.6,1.2l-0.9-0.3c-0.5-0.2-1.8-0.5-2.9-0.7l-2-0.4l0.3-0.5l0.3-0.5l-1.7,0l-1.7,0v1.5h-0.9
	l0-1.3c0-0.7,0.2-1.6,0.5-2l0.4-0.7h-0.5c-0.3,0-0.9,0.2-1.4,0.4l-0.9,0.4l1.3,1.6l-0.3,0.3c-0.2,0.2-0.8,0.3-1.5,0.4l-1.2,0.1v1
	l-0.7-0.5l-0.7-0.5l-4.4,0.1l-0.7-0.7l-0.7-0.7l-1.4,0.6c-0.8,0.4-1.4,0.9-1.4,1.2v0.5l-1.2-0.2l-1.2-0.2l-0.1-0.9l-0.1-0.9l0.2,0.7
	l0.2,0.7l1.3-0.5l-0.2-1.1c-0.1-0.6-0.3-1.7-0.4-2.4l-0.3-1.3h-1.4l-0.6,1.7l-0.6,1.7l-1-0.3l-1-0.3l0.7,0.5l0.7,0.5L361,21
	l-0.9,0.7v-1.8h-1.1v1.6l-1.1,0.3l-1.1,0.3v-1.5l0.7-0.2l0.7-0.2l-1-1.2l-1-1.2l-0.5,0.3l-0.5,0.3l0.3,0.8l0.3,0.8l-0.4-0.1
	c-0.2,0-1.1,0-2.1,0l-1.7,0.1l0.8,0.5l0.8,0.5l0.7-0.3l0.7-0.3V21c0,0.3-0.2,0.7-0.5,0.9l-0.5,0.3l-0.3-0.6l-0.3-0.6h-2.1l0-1.4
	l-1.8,2.3l0.3-0.9l0.3-0.9l-2.3-0.6l-0.6,0.9l-0.6,0.9l-1-1l-1-1l-0.5,0.8l-0.5,0.8l0.3,0.5l0.3,0.5l-1.3,0l-1.3,0l0.8-0.5l0.8-0.5
	l-1.5-0.4l-1.5-0.4l-0.7,0.4l-0.7,0.4l0.3-1.8l0.3-1.8h-1.1v1.8l-1.8-0.2l-1.8-0.2l-1.4-1.7l0.7,2h-1.6l-0.7-0.9l-0.7-0.9l-0.7,0.6
	l-0.7,0.6l-2.1-0.2l-2.1-0.2l0.2,0.8l0.2,0.8l-1.5-1.2c-0.8-0.7-1.7-1.2-1.9-1.2c-0.2,0-0.6,0.4-0.8,1l-0.4,1l0.7,0.5
	c0.4,0.3,0.9,0.5,1.2,0.5l0.5,0l-0.6-1.7l0.8,0.3c0.4,0.2,0.8,0.5,0.8,0.8c0,0.3-0.2,0.6-0.4,0.8c-0.2,0.2-1.8,0.3-3.5,0.3
	c-0.6,0-1.4,0-2.2,0v-1.3l-0.7,0.8l0.5,0.5c-1.2,0-2.4-0.1-3.2-0.2L312,20l-0.9-0.7l-0.9-0.7l-0.2,0.7l-0.2,0.7l-1-1l-1-1v1.3H306
	v-1l1.8-0.6l1.8-0.6l-0.7-0.7l-0.7-0.7l-0.7,0.7l-0.7,0.7h-2.5l-0.3-0.6l-0.3-0.6h1.2v-1.7l-1.7-0.7l-1,0.4l-1,0.4l0.7,0.5
	c0.4,0.3,0.7,0.7,0.7,1c0,0.3,0.1,0.8,0.3,1.2l0.3,0.7h1.9v1.7h-0.5c-0.3,0-0.5-0.3-0.5-0.6v-0.6h-1.7v1.2l-1-0.6l-1-0.6l-0.6,0.7
	l-0.6,0.7v-1.5l-1.1,0.3l-1.1,0.3l0-0.7l0-0.6l2.1,0l-0.5-0.9h-3l-1.5-2.4l-1.6,1.7l0.6,1.7l3,0l0.8,0l-0.7,0.9l-0.7,1h-1.9l0.8-1.3
	l-1.3,0.4c-0.7,0.2-1.4,0.6-1.5,0.9l-0.2,0.4l-1.1-0.3l-1.1-0.3l0.3-1.7l-0.7-0.3l-0.8-0.3l0.4,1.2l0.4,1.2h-0.3
	c-0.2,0-0.9-0.3-1.5-0.6l-1.1-0.6l0.3,0.6l0.3,0.6l-0.9,0.3c-0.5,0.2-1.2,0.3-1.7,0.3h-0.8l1.1-1.1l1.1-1.1l-0.3-2.2l-0.3-2.2
	l1.7-1.6l1.7-1.6l-0.3-0.3l-0.3-0.3l-0.7,0.7c-0.4,0.4-1,0.7-1.3,0.7h-0.7l-0.5-2l0.1,1.7l0.1,1.7l-1.1,0.2
	c-0.6,0.1-1.3,0.5-1.6,0.8l-0.5,0.5l1.2,0.3l1.2,0.3l-0.3,0.5l-0.3,0.5l-1.1-0.6l-1.1-0.6v1.2h1.6l1.2,2.3h-1.6l-0.6,1.4l-0.6-0.9
	l-0.6-0.9l-1,0.6l-1,0.6l-1.4-0.7l-1.4-0.7l-0.7,1.2l-0.4-1.8l-0.4-1.8l-0.8,0.3l-0.8,0.3l0.3-0.9l0.3-0.9l-2.9,0.2l-2.9,0.2
	l0.2,0.9l0.2,0.9h-1.2l0.3,1.1l0.3,1.1l-0.5,0.3l-0.5,0.3l-1-1.9l-1.8,0.7l-1.8-1.1c-1-0.6-2-1.1-2.2-1.1l-0.4,0v2.8h-0.8
	c-0.4,0-1.2,0.2-1.8,0.4l-1,0.4l0.9-0.8c0.5-0.4,1.1-1.3,1.3-2l0.4-1.2l-0.6-0.4l-0.6-0.4l-0.6,0.7l-0.6,0.7l0.7-0.4l0.7-0.4v1.2
	h-0.5c-0.3,0-1,0.6-1.6,1.2l-1.1,1.2l-0.3-0.9l-0.3-0.9l-0.5,0.3l-0.5,0.3l0.4,0.7l0.4,0.7l-0.9-0.8l-0.9-0.8v-2.7h0.6
	c0.3,0,0.6,0.3,0.6,0.6v0.6l0,0l3-0.5l-3.5-1.5l2,0l1.2-0.8l-0.9,0c-0.5,0-5.7,0.4-6.6,0.3 M443.7,12.9l0.4,0.4v-1.5l-0.7,0.8
	L443.7,12.9z M465.6,9.1c0-0.3-0.2-0.6-0.5-0.6c-0.3,0-0.7,0.3-0.9,0.6l-0.3,0.6h1.7V9.1z M496,22.2l-0.4,0.4l-0.4,0.4l-3.7,0.1
	l-3.7,0.1l-1.6-1.3l0.4,0.7l0.4,0.7h-0.6c-0.3,0-0.7-0.3-0.9-0.6l-0.4-0.6l-0.8,0.7l-0.7,0.6h14.3L496,22.2z M430.1,6
	c0.1,0,0.3-0.8,0.5-1.6l0.4-1.6l-1.7,0.4l-1.7,0.4V1.1l-0.4,0l-0.4,0l0,3.3l0,3.3l1.7-0.8C429.3,6.5,430.1,6.1,430.1,6z M439.7,13.4
	l0.6,0.4v-1.2h-0.6c-0.3,0-0.6,0.1-0.6,0.3C439.1,12.9,439.4,13.2,439.7,13.4z M426.5,23.4h1.3l-0.2-0.6l0.8-0.7
	c0.4-0.4,0.8-0.6,0.8-0.5c0,0.1,0.2,0.9,0.3,1.7h36.1c0,0,0,0,0,0v-0.5l-1.2-0.4l-1.2-0.4l-0.6,0.6l-0.6,0.6l-1.8-1l-1.8-1l-1.4,0.3
	l-1.4,0.3l-0.7-2.4h-1.6l0.3,0.5l0.3,0.5l-0.3,0.9l-0.3,0.9h-0.7c-0.4,0-1.4-0.4-2.2-0.8l-1.5-0.8l-1.6,0.9l-1.6,0.9l-0.4-0.7
	l-0.4-0.7l-5.9-0.2l-5.9-0.2v0.5c0,0.3-0.3,0.5-0.6,0.5h-0.6l0.3-0.9l0.3-0.9l-0.9,0.3c-0.5,0.2-1.7,0.3-2.6,0.3h-1.8l-0.7,1.2
	l-0.7,1.2L426.5,23.4L426.5,23.4z M425.5,23.4L425.5,23.4l-1.4-0.1l0.1,0.1H425.5z M382.3,13.9l0.4-0.4l0.4-0.4h-1.5l0.4,0.4
	L382.3,13.9z M390.3,15.9c0.2,0,0.3-0.1,0.3-0.3c0-0.2-0.1-0.3-0.3-0.3c-0.2,0-0.3,0.1-0.3,0.3C390.1,15.8,390.2,15.9,390.3,15.9z
	 M390.9,13.7c0.2,0,0.3-0.1,0.3-0.3c0-0.2-0.1-0.3-0.3-0.3c-0.2,0-0.3,0.1-0.3,0.3C390.6,13.5,390.7,13.7,390.9,13.7z M391.4,8.5
	c0.2,0,0.3-0.1,0.3-0.3c0-0.2-0.1-0.3-0.3-0.3c-0.2,0-0.3,0.1-0.3,0.3C391.2,8.4,391.3,8.5,391.4,8.5z M389.5,19l0.4-0.4l0.4-0.4
	h-1.5l0.4,0.4L389.5,19z M465,15.1c0,0.2,0.1,0.3,0.3,0.3c0.2,0,0.3-0.1,0.3-0.3c0-0.2-0.1-0.3-0.3-0.3
	C465.2,14.8,465,14.9,465,15.1z M377.6,10.2c0.2,0,0.4-0.3,0.6-0.6c0.2-0.3,0.2-0.6,0.1-0.6c-0.2,0-0.4,0.3-0.6,0.6
	C377.5,10,377.4,10.2,377.6,10.2z M385.9,8c0.2,0,0.3-0.1,0.3-0.3c0-0.2-0.1-0.3-0.3-0.3c-0.2,0-0.3,0.1-0.3,0.3
	C385.6,7.8,385.8,8,385.9,8z M396.1,18.4l0.4-0.4l0.4-0.4h-1.5l0.4,0.4L396.1,18.4z M384.8,17.3l0.9,0.3l-0.3-0.6
	c-0.2-0.3-0.6-0.6-0.9-0.6c-0.3,0-0.5,0.1-0.5,0.2C384,16.9,384.4,17.1,384.8,17.3z M383.7,15.4c0.2,0,0.3-0.1,0.3-0.3
	c0-0.2-0.1-0.3-0.3-0.3c-0.2,0-0.3,0.1-0.3,0.3C383.4,15.2,383.6,15.4,383.7,15.4z M474.1,9.1c0.2,0,0.3-0.1,0.3-0.3
	c0-0.2-0.1-0.3-0.3-0.3c-0.2,0-0.3,0.1-0.3,0.3C473.9,9,474,9.1,474.1,9.1z M473.9,12.5h0.6v-1.8l-0.6,0.4c-0.3,0.2-0.6,0.6-0.6,0.9
	C473.3,12.3,473.5,12.5,473.9,12.5z M469.7,12c0.2,0,0.3-0.1,0.3-0.3c0-0.2-0.1-0.3-0.3-0.3s-0.3,0.1-0.3,0.3
	C469.4,11.8,469.6,12,469.7,12z M401.9,1.1c0.2,0,0.3-0.1,0.3-0.3c0-0.2-0.1-0.3-0.3-0.3c-0.2,0-0.3,0.1-0.3,0.3
	C401.6,1,401.8,1.1,401.9,1.1z M466.5,23.4h17.2l-0.7-0.6l-0.8-0.7l-1.1,0.7l-0.7-1.1l-4.5,0.3c-2.5,0.2-5.5,0.4-6.7,0.5
	c-1.2,0.1-2.4,0.2-2.7,0.3l-0.4,0L466.5,23.4L466.5,23.4z M404.3,15.7l0.7,0.1v-0.5c0-0.3-0.3-0.6-0.7-0.7c-0.4-0.1-0.8-0.2-0.9-0.1
	c-0.1,0.1-0.1,0.4,0,0.6C403.5,15.4,403.9,15.7,404.3,15.7z M404.9,3.6V2.1l-0.7,0.8l0.4,0.4L404.9,3.6z M474.7,6.8
	c0.2,0,0.3-0.1,0.3-0.3c0-0.2-0.1-0.3-0.3-0.3c-0.2,0-0.3,0.1-0.3,0.3C474.4,6.7,474.5,6.8,474.7,6.8z M406,20.1l0.4-0.4l0.4-0.4
	h-1.5l0.4,0.4L406,20.1z M279.2,16.5c0.3,0,0.6-0.5,0.7-1.1l0.3-1.1l-0.3-0.3l-0.3-0.3l-1.3,1.1l-0.4-0.4c-0.2-0.2-0.1,0.2,0.2,0.9
	C278.4,15.9,278.9,16.5,279.2,16.5z M287.5,17.9c0,0.2,0.1,0.3,0.3,0.3c0.2,0,0.3-0.1,0.3-0.3c0-0.2-0.1-0.3-0.3-0.3
	C287.6,17.7,287.5,17.8,287.5,17.9z M288.5,12.8l-0.6-0.4c-0.3-0.2-0.7-0.4-0.7-0.4c-0.1,0-0.1,0.6-0.1,1.3c0,0.7-0.1,1.7-0.3,2.3
	l-0.4,1h0.6c0.3,0,0.8-0.3,1-0.7c0.2-0.4,0.5-1.2,0.5-1.9L288.5,12.8z M251.7,10.8c0.3,0,0.5-0.3,0.5-0.6V9.7h-1.7l0.3,0.6
	C251,10.6,251.4,10.8,251.7,10.8z M254.2,10.8h0.8V9.7l-0.8,0.3c-0.5,0.2-0.8,0.4-0.8,0.6C253.3,10.7,253.7,10.8,254.2,10.8z
	 M264.4,15.6v-1.4h2.7l0.3-0.6l0.3-0.6h-3.9l-0.7,1.2l0.6,0.6L264.4,15.6z M257.2,13.5l1.5,0.3l1.5,0.3l1.7-1l-2.9,0l-0.7-0.9
	c-0.4-0.5-0.8-0.8-1-0.8c-0.2,0-0.7,0.3-1.2,0.6l-0.8,0.6l1.9,0V13.5z M275.5,11.2c0.3,0.2,0.6,0.2,0.8,0.1c0.1-0.1,0-1.1-0.4-2.1
	l-0.6-1.9l-0.8,1.4l0.3,1.1C274.8,10.3,275.2,11,275.5,11.2z M273.7,13.1c0.3,0,0.6-0.3,0.6-0.6c0-0.3-0.2-0.6-0.6-0.6
	c-0.3,0-0.6,0.3-0.6,0.6C273.2,12.8,273.4,13.1,273.7,13.1z M275.7,13.4l-0.3,0.9l0.3,0.9c0.2,0.5,0.5,0.9,0.8,0.9h0.5v-3.4h-0.5
	C276.3,12.5,275.9,12.9,275.7,13.4z M273.5,8c0.2,0,0.3-0.1,0.3-0.3c0-0.2-0.1-0.3-0.3-0.3c-0.2,0-0.3,0.1-0.3,0.3
	C273.2,7.8,273.3,8,273.5,8z M265.1,11.2l0.4,0.4l0.4-0.4l0.4-0.4h-1.5L265.1,11.2z"/>
</svg>
