<?xml version="1.0" encoding="UTF-8"?>
<svg width="19px" height="20px" viewBox="0 0 19 20" version="1.1" xmlns="http://www.w3.org/2000/svg" xmlns:xlink="http://www.w3.org/1999/xlink">
    <!-- Generator: Sketch 46.2 (44496) - http://www.bohemiancoding.com/sketch -->
    <title>icons8-facebook-messenger</title>
    <desc>Created with Sketch.</desc>
    <defs></defs>
    <g id="Welcome" stroke="none" stroke-width="1" fill="none" fill-rule="evenodd">
        <g id="Desktop" transform="translate(-931.000000, -2019.000000)" fill-rule="nonzero" fill="#E1E1E1">
            <g id="Footer" transform="translate(0.000000, 1922.000000)">
                <g id="icons8-facebook-messenger" transform="translate(931.000000, 97.000000)">
                    <path d="M9.5,0 C4.27403183,0 0,3.96424922 0,8.88043478 C0,11.5684445 1.29398798,13.9547383 3.30434783,15.5794837 L3.30434783,19.2710598 L3.91100543,18.9483696 L6.89266304,17.3994565 C7.7252038,17.622113 8.59162693,17.7608696 9.5,17.7608696 C14.7259682,17.7608696 19,13.7966203 19,8.88043478 C19,3.96424922 14.7259682,0 9.5,0 Z M9.5,0.826086957 C14.3096976,0.826086957 18.173913,4.4434445 18.173913,8.88043478 C18.173913,13.3174255 14.3096976,16.9347826 9.5,16.9347826 C8.6061483,16.9347826 7.74133852,16.8057065 6.93138587,16.5733696 L6.77649457,16.5346467 L6.63451087,16.6120924 L4.13043478,17.9157609 L4.13043478,15.205163 L3.97554348,15.0889946 C2.04908309,13.6062329 0.826086957,11.3748304 0.826086957,8.88043478 C0.826086957,4.4434445 4.69030241,0.826086957 9.5,0.826086957 Z M8.55774457,6.49252717 L3.58831522,11.7588315 L8.05434783,9.25475543 L10.4422554,11.810462 L15.3471467,6.49252717 L10.9972826,8.93206522 L8.55774457,6.49252717 Z" id="Shape"></path>
                </g>
            </g>
        </g>
    </g>
</svg>