<?xml version="1.0" encoding="UTF-8"?>
<svg width="18px" height="18px" viewBox="0 0 18 18" version="1.1" xmlns="http://www.w3.org/2000/svg" xmlns:xlink="http://www.w3.org/1999/xlink">
    <!-- Generator: Sketch 46.2 (44496) - http://www.bohemiancoding.com/sketch -->
    <title>if_Whatsapp_853339</title>
    <desc>Created with Sketch.</desc>
    <defs></defs>
    <g id="Welcome" stroke="none" stroke-width="1" fill="none" fill-rule="evenodd">
        <g id="Desktop" transform="translate(-931.000000, -2049.000000)" fill-rule="nonzero" fill="#E1E1E1">
            <g id="Footer" transform="translate(0.000000, 1922.000000)">
                <g id="if_Whatsapp_853339" transform="translate(931.000000, 127.000000)">
                    <path d="M0,18 L1.6442668,13.722 C0.713464901,12.28275 0.223332501,10.617 0.223332501,8.89575 C0.223332501,3.99 4.21034224,0 9.11166625,0 C14.0122408,0 18,3.99 18,8.89575 C18,13.8 14.0122408,17.79075 9.11166625,17.79075 C7.43967025,17.79075 5.81338996,17.3205 4.39695229,16.431 L0,18 Z M4.47864102,15.7305 L4.60979266,15.816 C5.95278541,16.69425 7.50936797,17.1585 9.11166625,17.1585 C13.6652511,17.1585 17.3682238,13.45275 17.3682238,8.89575 C17.3682238,4.33875 13.6652511,0.6315 9.11166625,0.6315 C4.55808144,0.6315 0.854359231,4.33875 0.854359231,8.89575 C0.854359231,10.54725 1.339995,12.14175 2.2588059,13.5075 L2.35098676,13.644 L1.0829378,16.94325 L4.47864102,15.7305 Z" id="Shape"></path>
                    <path d="M11.5838279,14 C10.5207715,14 8.34272997,12.7331465 7.30489614,11.694742 C6.3768546,10.7668535 5,8.56172738 5,7.41725729 C5,6.27352893 6.22106825,5 7.04821958,5 L7.16320475,5 L7.25,5.07417175 C7.46958457,5.26108456 8.5764095,6.21196638 8.79821958,6.64438767 C9.11869436,7.2689138 8.33531157,8.16342509 7.92210682,8.57285314 C8.10682493,8.80575243 8.52670623,9.30418658 9.11127596,9.88865996 C9.66246291,10.4404978 10.3345697,10.7379265 10.6468843,10.8566013 C10.9183976,10.589583 11.4725519,10.1126586 11.9792285,10.1126586 L12.0534125,10.1208175 L12.361276,10.2046316 C12.7900593,10.4249217 13.7403561,11.5315642 13.925816,11.7503709 L14,11.8378935 L14,11.952118 C14,12.7798747 12.7277448,14 11.5838279,14 Z M6.94807122,5.63713532 C6.45400593,5.75581012 5.62388724,6.66441404 5.62388724,7.41725729 C5.62388724,8.36294709 6.90801187,10.4152794 7.7462908,11.2534201 C8.75816024,12.2651228 10.7663205,13.3754739 11.5838279,13.3754739 C12.3367953,13.3754739 13.2448071,12.5447503 13.3620178,12.0515082 C12.9458457,11.5693918 12.3434718,10.9233559 12.1031157,10.7742706 L11.9488131,10.7371848 C11.6995549,10.7631449 11.2603858,11.0991429 10.9651335,11.4247569 L10.8323442,11.5701335 L10.6431751,11.513763 C10.5281899,11.479644 9.4962908,11.1555134 8.66913947,10.3292402 C8.12759644,9.78778639 7.29228487,8.86434811 7.21958457,8.60474699 L7.16691395,8.4185759 L7.3115727,8.28877534 C7.87388724,7.78366573 8.33456973,7.11018625 8.24109792,6.92920719 C8.12833828,6.70743366 7.4495549,6.07029834 6.94807122,5.63713532 Z" id="Shape"></path>
                </g>
            </g>
        </g>
    </g>
</svg>